<?xml version="1.0" encoding="UTF-8" standalone="no"?>
<!-- Created with Inkscape (http://www.inkscape.org/) -->

<svg
   width="210mm"
   height="297mm"
   viewBox="0 0 210 297"
   version="1.1"
   id="svg5"
   sodipodi:docname="box.svg"
   inkscape:version="1.1 (c4e8f9ed74, 2021-05-24)"
   xmlns:inkscape="http://www.inkscape.org/namespaces/inkscape"
   xmlns:sodipodi="http://sodipodi.sourceforge.net/DTD/sodipodi-0.dtd"
   xmlns="http://www.w3.org/2000/svg"
   xmlns:svg="http://www.w3.org/2000/svg">
  <sodipodi:namedview
     id="namedview7"
     pagecolor="#ffffff"
     bordercolor="#666666"
     borderopacity="1.0"
     inkscape:pageshadow="2"
     inkscape:pageopacity="0.0"
     inkscape:pagecheckerboard="0"
     inkscape:document-units="mm"
     showgrid="false"
     inkscape:zoom="2.8284271"
     inkscape:cx="248.54803"
     inkscape:cy="247.48737"
     inkscape:window-width="1920"
     inkscape:window-height="1006"
     inkscape:window-x="0"
     inkscape:window-y="44"
     inkscape:window-maximized="1"
     inkscape:current-layer="layer1"
     showguides="true"
     inkscape:guide-bbox="true">
    <sodipodi:guide
       position="24.158152,252.71903"
       orientation="1,0"
       id="guide5505" />
    <sodipodi:guide
       position="21.198913,245.83207"
       orientation="0,-1"
       id="guide5507" />
    <sodipodi:guide
       position="21.187791,204.69513"
       orientation="0,-1"
       id="guide5509" />
  </sodipodi:namedview>
  <defs
     id="defs2" />
  <g
     inkscape:label="Layer 1"
     inkscape:groupmode="layer"
     id="layer1">
    <g
       id="panel7439">
      <path
         style="fill:none;stroke:#000000;stroke-width:1"
         d="M 36.15 109.3 L 42.9536 109.3 L 42.9536 106.3 L 49.1036 106.3 L 49.1036 109.3 L 55.8321 109.3 L 55.8321 106.3 L 61.9821 106.3 L 61.9821 109.3 L 68.7107 109.3 L 68.7107 106.3 L 74.8607 106.3 L 74.8607 109.3 L 81.5893 109.3 L 81.5893 106.3 L 87.7393 106.3 L 87.7393 109.3 L 94.4679 109.3 L 94.4679 106.3 L 100.618 106.3 L 100.618 109.3 L 107.346 109.3 L 107.346 106.3 L 113.496 106.3 L 113.496 109.3 L 120.3 109.3"
         id="path1126" />
      <path
         style="fill:none;stroke:#000000;stroke-width:1"
         d="M 120.3 109.3 L 120.3 116.45 L 117.3 116.45 L 117.3 122.3 L 120.3 122.3 L 120.3 129.45"
         id="path1128" />
      <path
         style="fill:none;stroke:#000000;stroke-width:1"
         d="M 120.3,129.45 H 36.15"
         id="path1130"
         sodipodi:nodetypes="cc" />
      <path
         style="fill:none;stroke:#000000;stroke-width:1"
         d="M 36.15 129.45 L 36.15 122.3 L 39.15 122.3 L 39.15 116.45 L 36.15 116.45 L 36.15 109.3"
         id="path1132" />
    </g>
    <g
       id="panel6713">
      <path
         style="fill:none;stroke:#000000;stroke-width:1"
         d="M 8 39.15 L 15 39.15 L 15 36.15 L 21.15 36.15 L 21.15 39.15 L 28.15 39.15"
         id="path1165" />
      <path
         style="fill:none;stroke:#000000;stroke-width:1"
         d="M 28.15 39.15 L 28.15 44.305 L 31.15 44.305 L 31.15 50.455 L 28.15 50.455 L 28.15 58.535 L 31.15 58.535 L 31.15 64.685 L 28.15 64.685 L 28.15 72.765 L 31.15 72.765 L 31.15 78.915 L 28.15 78.915 L 28.15 86.995 L 31.15 86.995 L 31.15 93.145 L 28.15 93.145 L 28.15 98.3"
         id="path1167" />
      <path
         style="fill:none;stroke:#000000;stroke-width:1"
         d="M 28.15 98.3 L 21.15 98.3 L 21.15 101.3 L 15 101.3 L 15 98.3 L 8 98.3"
         id="path1169" />
      <path
         style="fill:none;stroke:#000000;stroke-width:1"
         d="M 8,98.3 V 93.145 H 5 v -6.15 H 8 V 50.455 H 5 v -6.15 H 8 V 39.15"
         id="path1171"
         sodipodi:nodetypes="cccccccccc" />
    </g>
    <g
       id="panel8196">
      <path
         style="fill:none;stroke:#000000;stroke-width:1"
         d="M 36.15 36.15 L 43.1036 36.15 L 43.1036 39.15 L 48.9536 39.15 L 48.9536 36.15 L 55.9821 36.15 L 55.9821 39.15 L 61.8321 39.15 L 61.8321 36.15 L 68.8607 36.15 L 68.8607 39.15 L 74.7107 39.15 L 74.7107 36.15 L 81.7393 36.15 L 81.7393 39.15 L 87.5893 39.15 L 87.5893 36.15 L 94.6179 36.15 L 94.6179 39.15 L 100.468 39.15 L 100.468 36.15 L 107.496 36.15 L 107.496 39.15 L 113.346 39.15 L 113.346 36.15 L 120.3 36.15"
         id="path1213" />
      <path
         style="fill:none;stroke:#000000;stroke-width:1"
         d="M 120.3 36.15 L 120.3 44.455 L 117.3 44.455 L 117.3 50.305 L 120.3 50.305 L 120.3 58.685 L 117.3 58.685 L 117.3 64.535 L 120.3 64.535 L 120.3 72.915 L 117.3 72.915 L 117.3 78.765 L 120.3 78.765 L 120.3 87.145 L 117.3 87.145 L 117.3 92.995 L 120.3 92.995 L 120.3 101.3"
         id="path1215" />
      <path
         style="fill:none;stroke:#000000;stroke-width:1"
         d="M 120.3 101.3 L 113.346 101.3 L 113.346 98.3 L 107.496 98.3 L 107.496 101.3 L 100.468 101.3 L 100.468 98.3 L 94.6179 98.3 L 94.6179 101.3 L 87.5893 101.3 L 87.5893 98.3 L 81.7393 98.3 L 81.7393 101.3 L 74.7107 101.3 L 74.7107 98.3 L 68.8607 98.3 L 68.8607 101.3 L 61.8321 101.3 L 61.8321 98.3 L 55.9821 98.3 L 55.9821 101.3 L 48.9536 101.3 L 48.9536 98.3 L 43.1036 98.3 L 43.1036 101.3 L 36.15 101.3"
         id="path1217" />
      <path
         style="fill:none;stroke:#000000;stroke-width:1"
         d="M 36.15 101.3 L 36.15 92.995 L 39.15 92.995 L 39.15 87.145 L 36.15 87.145 L 36.15 78.765 L 39.15 78.765 L 39.15 72.915 L 36.15 72.915 L 36.15 64.535 L 39.15 64.535 L 39.15 58.685 L 36.15 58.685 L 36.15 50.305 L 39.15 50.305 L 39.15 44.455 L 36.15 44.455 L 36.15 36.15"
         id="path1219" />
    </g>
    <g
       id="panel5934">
      <path
         style="fill:none;stroke:#000000;stroke-width:1"
         d="M 128.3 39.15 L 135.3 39.15 L 135.3 36.15 L 141.45 36.15 L 141.45 39.15 L 148.45 39.15"
         id="path1222" />
      <path
         style="fill:none;stroke:#000000;stroke-width:1"
         d="m 148.45,39.15 v 5.155 h 3 v 6.15 h -3 v 36.54 h 3 v 6.15 h -3 V 98.3"
         id="path1224"
         sodipodi:nodetypes="cccccccccc" />
      <path
         style="fill:none;stroke:#000000;stroke-width:1"
         d="M 148.45 98.3 L 141.45 98.3 L 141.45 101.3 L 135.3 101.3 L 135.3 98.3 L 128.3 98.3"
         id="path1226" />
      <path
         style="fill:none;stroke:#000000;stroke-width:1"
         d="M 128.3 98.3 L 128.3 93.145 L 125.3 93.145 L 125.3 86.995 L 128.3 86.995 L 128.3 78.915 L 125.3 78.915 L 125.3 72.765 L 128.3 72.765 L 128.3 64.685 L 125.3 64.685 L 125.3 58.535 L 128.3 58.535 L 128.3 50.455 L 125.3 50.455 L 125.3 44.305 L 128.3 44.305 L 128.3 39.15"
         id="path1228" />
    </g>
    <g
       id="panel4548">
      <path
         style="fill:none;stroke:#000000;stroke-width:1"
         d="M 156.45,36.15 H 240.6"
         id="path1231"
         sodipodi:nodetypes="cc" />
      <path
         style="fill:none;stroke:#000000;stroke-width:1"
         d="m 240.6,36.15 2.64583,8.305 H 237.6 v 5.85 h 5.64583 v 8.38 H 237.6 v 20.08 h 5.64583 v 8.38 H 237.6 v 5.85 h 5.64583 L 240.6,101.3"
         id="path1233"
         sodipodi:nodetypes="cccccccccccccc" />
      <path
         style="fill:none;stroke:#000000;stroke-width:1"
         d="M 240.6,101.3 H 156.45"
         id="path1235"
         sodipodi:nodetypes="cc" />
      <path
         style="fill:none;stroke:#000000;stroke-width:1"
         d="m 156.45,101.3 -2.64583,-8.305 H 159.45 v -5.85 h -5.64583 v -8.38 H 159.45 v -20.08 h -5.64583 v -8.38 H 159.45 v -5.85 h -5.64583 L 156.45,36.15"
         id="path1237"
         sodipodi:nodetypes="cccccccccccccc" />
    </g>
    <g
       id="panel2539">
      <path
         style="fill:none;stroke:#000000;stroke-width:1"
         d="M 36.15,8 H 120.3"
         id="path1240"
         sodipodi:nodetypes="cc" />
      <path
         style="fill:none;stroke:#000000;stroke-width:1"
         d="M 120.3 8 L 120.3 15.15 L 117.3 15.15 L 117.3 21 L 120.3 21 L 120.3 28.15"
         id="path1242" />
      <path
         style="fill:none;stroke:#000000;stroke-width:1"
         d="M 120.3 28.15 L 113.496 28.15 L 113.496 31.15 L 107.346 31.15 L 107.346 28.15 L 100.618 28.15 L 100.618 31.15 L 94.4679 31.15 L 94.4679 28.15 L 87.7393 28.15 L 87.7393 31.15 L 81.5893 31.15 L 81.5893 28.15 L 74.8607 28.15 L 74.8607 31.15 L 68.7107 31.15 L 68.7107 28.15 L 61.9821 28.15 L 61.9821 31.15 L 55.8321 31.15 L 55.8321 28.15 L 49.1036 28.15 L 49.1036 31.15 L 42.9536 31.15 L 42.9536 28.15 L 36.15 28.15"
         id="path1244" />
      <path
         style="fill:none;stroke:#000000;stroke-width:1"
         d="M 36.15 28.15 L 36.15 21 L 39.15 21 L 39.15 15.15 L 36.15 15.15 L 36.15 8"
         id="path1246" />
    </g>
    <rect
       style="fill:none;stroke:#000000;stroke-width:0.562;stop-color:#000000;stroke-opacity:1;stroke-miterlimit:4;stroke-dasharray:none"
       id="rect4752"
       width="65.906464"
       height="15.265653"
       x="166.33353"
       y="39.850021"
       rx="1.286375"
       ry="1.286375" />
    <rect
       style="fill:none;stroke:#000000;stroke-width:0.562;stroke-miterlimit:4;stroke-dasharray:none;stroke-opacity:1;stop-color:#000000"
       id="rect4752-3"
       width="65.906464"
       height="15.265653"
       x="166.51701"
       y="80.673561"
       rx="1.286375"
       ry="1.286375" />
    <rect
       style="fill:none;stroke:#000000;stroke-width:0;stroke-miterlimit:4;stroke-dasharray:none;stroke-opacity:1;stop-color:#000000"
       id="rect4987"
       width="26.421331"
       height="37.723785"
       x="-50.321407"
       y="48.803913"
       rx="1.286375"
       ry="1.286375" />
    <rect
       style="fill:none;stroke:#000000;stroke-width:0;stroke-miterlimit:4;stroke-dasharray:none;stroke-opacity:1;stop-color:#000000"
       id="rect4991"
       width="28.623108"
       height="29.210255"
       x="-49.147125"
       y="30.308981"
       rx="1.286375"
       ry="1.286375" />
    <rect
       style="fill:none;stroke:#000000;stroke-width:0.226708;stroke-miterlimit:4;stroke-dasharray:none;stroke-opacity:1;stop-color:#000000"
       id="rect5039"
       width="12.773292"
       height="10.773292"
       x="11.38486"
       y="81.531578"
       rx="0.48043233"
       ry="0.49173659" />
    <rect
       style="fill:none;stroke:#000000;stroke-width:0.24573;stroke-miterlimit:4;stroke-dasharray:none;stroke-opacity:1;stop-color:#000000"
       id="rect5039-6"
       width="11.754271"
       height="13.754271"
       x="12.40388"
       y="51.167931"
       rx="0.44210464"
       ry="0.62780052" />
    <path
       style="fill:none;stroke:#000000;stroke-width:0.264583px;stroke-linecap:butt;stroke-linejoin:miter;stroke-opacity:1"
       d="m 88.245483,61.780398 c 0.06922,-0.647052 0.08927,-1.290709 0.315794,-1.894771 0.295515,-0.788027 0.48995,-1.946513 0.992497,-2.616592 0.780161,-1.040236 1.872586,-0.224824 2.345907,0.721818 0.247456,0.494914 0.676507,2.774379 1.082725,2.977499"
       id="path6180" />
    <path
       style="fill:none;stroke:#000000;stroke-width:0.264583px;stroke-linecap:butt;stroke-linejoin:miter;stroke-opacity:1"
       d="m 92.982406,60.968352 c 1.157914,3e-6 2.315829,0 3.473746,0 0.305779,0 0.696458,0.07401 0.992497,0 0.31265,-0.07816 0.744924,-0.174672 1.082725,-0.09023 0.507246,0.126801 0.947759,0.270679 1.488756,0.270679 0.34714,-0.423387 0.24903,-0.927548 0.40602,-1.398517 0.0349,-0.10468 0.16134,-0.246213 0.18046,-0.360908 0.0602,-0.361457 0.27006,-0.674243 0.3609,-1.037615 0.18442,-0.737664 0.40149,-1.215797 1.03761,-1.533861 0.16655,-0.08327 0.46293,-0.161488 0.67671,-0.09023 0.0644,0.02146 0.27993,0.243783 0.31579,0.270682 0.0945,0.07089 0.37597,0.221826 0.45114,0.315797 0.47003,0.587543 0.81505,1.677187 1.08273,2.391022 0.15492,0.41314 0.51593,0.748873 0.63158,1.172952 0.17157,0.629114 0.61438,0.812044 -0.0451,0.812044"
       id="path6184" />
    <path
       style="fill:none;stroke:#000000;stroke-width:0.264583px;stroke-linecap:butt;stroke-linejoin:miter;stroke-opacity:1"
       d="m 88.245481,61.780398 c -0.596448,1.680649 -0.541359,3.456501 -0.541359,5.233173 0,0.610198 -0.139975,1.437827 0.04511,2.03011 0.150368,0.481182 0.876403,2.045042 1.172953,2.391024 1.302174,1.519214 3.21105,2.058773 5.097836,2.43613 0.04424,0.0088 0.09023,0 0.135342,0 0.13534,0.01503 0.27309,0.01558 0.406019,0.04511 0.391374,0.08697 0.76613,0.284502 1.172953,0.315799 0.917467,0.07058 2.004949,0.244798 2.932385,0.09023 0.392764,-0.06546 0.83634,-0.161616 1.218068,-0.27068 0.535932,-0.153125 1.032052,-0.522205 1.578972,-0.631589 0.58199,-0.116401 1.31171,-0.308824 1.84965,-0.631592 0.10942,-0.06565 0.1599,-0.207373 0.27069,-0.27068 0.5409,-0.309081 1.04547,-0.807169 1.3083,-1.398524 0.0986,-0.221935 0.0967,-0.453368 0.18045,-0.676701 0.092,-0.245422 0.27835,-0.429029 0.36091,-0.676706 0.35619,-1.068512 0.40615,-2.120887 0.58648,-3.203064 0.0366,-0.219983 0.14269,-0.450123 0.18045,-0.676701 0.0416,-0.249357 0.10484,-1.865567 0,-2.07523 -0.21548,-0.430927 -0.2265,-0.883002 -0.36091,-1.353408 -0.0318,-0.111143 -0.15666,-0.192341 -0.27068,-0.135337 -0.0361,0.01805 0.18047,0.541399 0,0.270682 -0.18652,-0.279783 -0.30076,-0.601517 -0.45113,-0.902274"
       id="path6196" />
    <path
       style="fill:none;stroke:#000000;stroke-width:0.264583px;stroke-linecap:butt;stroke-linejoin:miter;stroke-opacity:1"
       d="m 89.553774,65.885734 c 1.377053,-0.143433 2.81137,-0.244039 4.195564,-0.09023"
       id="path6200" />
    <path
       style="fill:none;stroke:#000000;stroke-width:0.264583px;stroke-linecap:butt;stroke-linejoin:miter;stroke-opacity:1"
       d="m 99.975015,65.840617 c 1.368445,0 2.736885,0 4.105335,0 0.17327,0 1.0634,0.109567 1.26317,-0.09023"
       id="path6202" />
    <path
       style="fill:none;stroke:#000000;stroke-width:0.264583px;stroke-linecap:butt;stroke-linejoin:miter;stroke-opacity:1"
       d="m 96.726834,67.960956 c 0.510527,-0.0042 0.575604,0.06395 0,0 z"
       id="path6204" />
    <path
       style="fill:none;stroke:#000000;stroke-width:0.264583px;stroke-linecap:butt;stroke-linejoin:miter;stroke-opacity:1"
       d="m 95.779451,71.615159 c 0.182481,0.01011 0.779619,-1.861217 1.172954,-1.939885 0.02658,-0.0053 0.262768,0.519025 0.451135,0.812043 0.06579,0.102343 0.546466,0.726927 0.315791,0.496252"
       id="path6206" />
    <path
       style="fill:none;stroke:#000000;stroke-width:0.264583px;stroke-linecap:butt;stroke-linejoin:miter;stroke-opacity:1"
       d="m 87.884576,67.194024 c 0.02739,-0.561057 -3.767937,-2.662996 -4.782042,-4.01511"
       id="path6208" />
    <path
       style="fill:none;stroke:#000000;stroke-width:0.264583px;stroke-linecap:butt;stroke-linejoin:miter;stroke-opacity:1"
       d="m 87.884576,69.359475 c -2.04461,0.02397 -4.062085,-0.721818 -6.090333,-0.721818"
       id="path6212" />
    <path
       style="fill:none;stroke:#000000;stroke-width:0.264583px;stroke-linecap:butt;stroke-linejoin:miter;stroke-opacity:1"
       d="m 88.471048,71.254249 c -2.831973,0.448341 -3.08955,1.274156 -5.142944,2.30079"
       id="path6214" />
    <path
       style="fill:none;stroke:#000000;stroke-width:0.264583px;stroke-linecap:butt;stroke-linejoin:miter;stroke-opacity:1"
       d="m 106.42625,67.464706 c 2.28891,-0.875768 4.32643,-2.266251 6.36101,-3.609086 0.46377,-0.306086 1.32561,-0.992497 0.81206,-0.992497"
       id="path6216" />
    <path
       style="fill:none;stroke:#000000;stroke-width:0.264583px;stroke-linecap:butt;stroke-linejoin:miter;stroke-opacity:1"
       d="m 105.70443,69.539929 c -1.10537,-0.800944 7.94694,-0.242891 6.22568,-1.533861"
       id="path6218" />
    <path
       style="fill:none;stroke:#000000;stroke-width:0.264583px;stroke-linecap:butt;stroke-linejoin:miter;stroke-opacity:1"
       d="m 105.02773,71.344477 c 1.36037,-0.1334 1.52363,-0.185605 2.79705,0.451136 0.33049,0.165253 0.72421,0.261199 1.03761,0.496247 0.26478,0.198586 0.33873,0.620487 0.63158,0.766932"
       id="path6224" />
    <path
       id="path6226"
       style="fill:none;stroke:#000000;stroke-width:0.999999px;stroke-linecap:butt;stroke-linejoin:miter;stroke-opacity:1"
       transform="scale(0.26458333)"
       d="m 264.95703,288.51367 -2.29492,12.86524 c 1.38147,-4.59936 2.75766,-9.74337 2.29492,-12.86524 z m -2.29492,12.86524 c -1.40557,4.67958 -2.81646,8.7961 -2.30859,9.64257 0.14619,0.24367 0.4543,-0.34122 0.68164,-0.51171 z" />
    <path
       id="path6230"
       style="fill:none;stroke:#000000;stroke-width:0.999999px;stroke-linecap:butt;stroke-linejoin:miter;stroke-opacity:1"
       transform="scale(0.26458333)"
       d="m 276.8457,302.62305 c -1.41916,0.0171 -3.45831,1.72462 -4.81836,3.19922 l 0.6875,0.52929 c 0.11332,-0.1639 0.23204,-0.32355 0.35547,-0.48047 0.10225,-0.12997 0.26358,-0.31422 0.41211,-0.35742 0.023,-0.007 0.047,-0.0107 0.0703,-0.0156 0.25374,-0.27947 0.53227,-0.53152 0.87305,-0.72852 0.26088,-0.1358 0.32936,-0.17986 0.63867,-0.29687 0.0671,-0.0256 0.13715,-0.0423 0.20703,-0.0586 0.24179,-0.0561 0.46698,-0.0927 0.71094,-0.0898 0.0156,-0.005 0.0307,-0.0106 0.0469,-0.0137 0.29339,-0.0551 0.35658,-0.0654 0.47656,-0.0449 0.0319,-0.0163 0.0657,-0.0314 0.0996,-0.043 0.0852,-0.0291 0.17145,-0.0524 0.25781,-0.0781 0.064,-0.007 0.12758,-0.0118 0.19141,-0.0137 0.19147,-0.006 0.38268,0.0133 0.57226,0.0488 0.1487,0.034 0.2903,0.0876 0.43555,0.13281 0.0252,0.008 0.0501,0.0202 0.0762,0.0234 0.008,0.001 0.0136,-0.009 0.0215,-0.01 0.0251,-0.002 0.0508,0.001 0.0762,0.002 0.223,0.0192 0.49455,0.021 0.68555,0.16407 0.12874,0.003 0.25789,0.006 0.38671,0.004 0.37642,-0.0224 0.7752,0.0322 1.07813,0.27735 0.0881,0.0713 0.15868,0.16154 0.23828,0.24218 0.26173,0.32538 0.21447,0.75262 0.34766,1.12305 0.10639,0.20686 0.0691,0.40741 0.0723,0.62695 0,0.005 0.0109,-0.0104 0.0117,-0.006 0.006,0.0327 0.004,0.0663 0.006,0.0996 0.005,0.0724 0.01,0.14449 0.0156,0.21679 0.0298,0.34983 0.0591,0.70789 -0.0273,1.05274 -0.035,0.13968 -0.10118,0.27094 -0.15039,0.40625 -0.11743,0.34623 -0.22391,0.69689 -0.33008,1.04687 -0.004,0.0145 -0.01,0.0282 -0.0117,0.043 -0.0161,0.12779 0.0183,0.0471 -0.0195,0.2168 -0.0938,0.42061 -0.0683,0.27711 -0.1582,0.51758 -8e-4,0.009 -0.001,0.0222 -0.002,0.0293 -0.005,0.009 -0.0172,0.0299 -0.0215,0.0371 0.01,-0.0274 0.0156,-0.0455 0.0234,-0.0664 0.008,-0.0854 0.0268,-0.24152 0.0234,-0.26172 -0.001,8.6e-4 -0.005,0.005 -0.008,0.0156 -0.0476,0.17546 -0.0491,0.36188 -0.0898,0.53906 -0.0132,0.0574 -0.0465,0.10626 -0.0703,0.16016 -0.0737,0.16826 -0.14693,0.33759 -0.22071,0.50586 -0.0165,0.0375 -0.0576,0.15376 -0.0508,0.11328 0.0101,-0.0612 0.0651,-0.11586 0.0606,-0.17773 -0.0128,-0.18127 -0.0643,-0.70926 -0.10937,-0.53321 -0.0752,0.29343 0.0379,0.6063 0.0137,0.90821 -0.006,0.0734 -0.0728,0.12802 -0.10352,0.19531 l 0.5586,0.42969 c 0.3551,-0.44591 0.67063,-0.84494 0.76953,-1.0625 0.0941,-0.20696 -0.0719,-0.46595 0,-0.68164 0.9362,-2.80862 0.68359,0.19178 0.68359,-3.06836 0,-2.41446 -0.0854,-2.68629 -2.2168,-3.75196 -0.97599,-0.48799 -1.38318,-0.77255 -2.38671,-1.02343 -0.12284,-0.0307 -0.25346,-0.0446 -0.38868,-0.043 z m 3.53907,9.63086 c -0.58506,0.73466 -1.27539,1.60018 -1.27539,2.00781 0,0.0978 2.16242,-0.86575 2.55664,-1.02344 z m -8.35743,-6.43164 -1.23632,-0.94922 c 0.58742,1.03599 -2.565,6.38586 -1.74219,6.66015 0.90102,0.30036 1.4759,-3.69892 1.70508,-4.09179 0.23039,-0.39497 0.69056,-0.98698 1.27343,-1.61914 z m -1.23632,-0.94922 c -0.0457,-0.0807 -0.11231,-0.13624 -0.20704,-0.16016 z" />
    <path
       id="path6234"
       style="fill:none;stroke:#000000;stroke-width:0.999999px;stroke-linecap:butt;stroke-linejoin:miter;stroke-opacity:1"
       transform="scale(0.26458333)"
       d="m 291.02148,303.61719 c -0.27515,-0.004 -0.55284,0.0168 -0.83007,0.0723 -0.41708,0.0834 -0.74263,0.57466 -1.02149,0.85352 -2.02183,2.02184 -2.90039,3.60104 -2.90039,6.64844 0,0.60135 -0.19644,2.13917 0.17188,2.72851 0.51863,0.82981 1.29963,1.01785 2.18359,0.81836 l 7.61523,-7.70117 c 0.35286,-0.81363 0.68555,-1.55146 0.97071,-1.9043 -0.35025,-0.14009 -0.70054,-0.27982 -1.05078,-0.41992 0,-0.11365 0.0804,-0.26144 0,-0.3418 -0.34507,-0.34507 -2.20206,-0.22283 -2.72852,-0.33984 -0.77318,-0.17181 -1.58468,-0.40302 -2.41016,-0.41406 z m 6.18946,1.51562 c 0.21811,0.0872 0.43618,0.17448 0.65429,0.26172 -0.16737,-0.58581 -0.39093,-0.58759 -0.65429,-0.26172 z m 0.65429,0.26172 -1.625,1.64258 c -0.40725,0.93905 -0.84285,1.97522 -1.27343,2.62109 -0.72749,1.09124 -3.92229,4.53405 -6.3418,5.08008 l -6.27539,6.34375 c -0.75164,0.11563 -3.2481,0.25006 -3.92188,1.19336 -0.4693,0.65705 0.51043,1.91437 0.85157,2.38672 1.98943,2.75463 5.51188,8.92991 9.54882,5.62695 3.68593,-3.01576 2.46916,-3.45325 4.0918,-7.16211 1.85485,-4.23964 2.581,-8.46115 3.58008,-12.95703 0.1866,-0.83961 0.11548,-1.72881 0.3418,-2.55859 0.21411,-0.78509 1.24699,-1.43434 1.02343,-2.2168 z" />
    <path
       style="fill:none;stroke:#000000;stroke-width:0.264583px;stroke-linecap:butt;stroke-linejoin:miter;stroke-opacity:1"
       d="m 81.246246,81.524223 c 0,1.381291 0.02085,0.582766 -0.180456,2.79704 -0.0027,0.02995 0,-0.06015 0,-0.09023 0,-0.518387 -0.06725,-0.316632 0.09023,-0.631589"
       id="path6236" />
    <path
       style="fill:none;stroke:#000000;stroke-width:0.264583px;stroke-linecap:butt;stroke-linejoin:miter;stroke-opacity:1"
       d="M 81.516925,79.08809 C 81.46227,79.225494 80.60133,78.727177 80.930447,78.727177"
       id="path6272" />
    <path
       style="fill:none;stroke:#000000;stroke-width:0.264583px;stroke-linecap:butt;stroke-linejoin:miter;stroke-opacity:1"
       d="m 91.175373,59.671997 c -0.311414,-0.320916 -0.470519,-0.75965 -0.778208,-1.082725 -0.03875,-0.04069 -0.162383,-0.172572 -0.191733,-0.157898 -0.05249,0.02625 -0.04436,0.157504 -0.04511,0.169177 -0.01879,0.291277 -0.05264,0.574873 -0.04511,0.868434 0.0078,0.304969 -0.0042,0.09345 0.03383,0.270682 0.0063,0.02964 0.01127,0.120536 0.01127,0.09023 0,-0.04135 0.01106,-0.08422 0,-0.124063 -0.01672,-0.06021 -0.16219,-0.460269 -0.293238,-0.394743 -0.153035,0.07652 -0.11153,0.452232 -0.112784,0.530085 -0.0056,0.344501 0.02291,0.655937 0.09023,0.992497 0.0058,0.02879 -0.04833,-0.03429 -0.06767,-0.05639 -0.105328,-0.120375 -0.207627,-0.242909 -0.315794,-0.360908 -0.0127,-0.01386 -0.04143,-0.05227 -0.04511,-0.03384 -0.0213,0.106478 0.03378,0.800745 0.101505,0.823322 0.03163,0.01056 0.03177,-0.06311 0.03383,-0.06767 0.0254,-0.0559 0.04746,-0.07221 0.101505,-0.09022"
       id="path6280" />
    <path
       style="fill:none;stroke:#000000;stroke-width:0.264583px;stroke-linecap:butt;stroke-linejoin:miter;stroke-opacity:1"
       d="m 102.69062,59.378759 c 0.0913,0.04874 0.61694,-0.736695 0.87971,-0.631589 0.049,0.01961 0.0242,0.106746 0.0113,0.157895 -0.0607,0.239808 -0.14353,0.473493 -0.21429,0.710541 -0.002,0.0079 -0.0364,0.08514 -0.0338,0.09023 0.0315,0.06295 0.31811,-0.06544 0.3609,-0.07895 0.0564,-0.01781 0.13198,-0.03303 0.12407,-0.01127 -0.0414,0.113937 -0.13444,0.203628 -0.18046,0.315793 -0.0403,0.0982 -0.0654,0.229291 -0.0902,0.338352 -0.0128,0.05608 -0.0745,0.128511 -0.0338,0.169177 0.0612,0.06118 0.29314,-0.103899 0.38346,0.02257 0.0651,0.09117 -0.006,0.36544 -0.0113,0.42858 -0.018,0.233487 -0.0336,0.498565 -0.0113,0.733094 0.005,0.04874 0.0677,0.295762 0.0677,0.101508"
       id="path6282" />
    <path
       style="fill:none;stroke:#000000;stroke-width:0.264583px;stroke-linecap:butt;stroke-linejoin:miter;stroke-opacity:1"
       d="m 103.01769,57.788505 c -0.079,-0.08647 -0.14951,-0.181419 -0.23685,-0.259403 -0.0204,-0.01823 -0.0526,-0.01503 -0.0789,-0.02257 -0.17309,-0.04945 -0.27942,0.0024 -0.41731,0.124063 -0.12461,0.109953 -0.23467,0.222311 -0.32707,0.360911 -0.15726,0.235889 -0.37882,0.930365 -0.40602,1.18423 -0.005,0.0486 0.008,0.09836 0,0.146618 -0.0118,0.07397 -0.0522,0.140992 -0.0677,0.214289 -0.0439,0.208595 -0.0812,0.409673 -0.11279,0.620313 -0.0262,0.174977 -0.0492,0.369059 -0.0902,0.541364 -0.0664,0.279024 -0.11252,0.550966 -0.1579,0.834599 -0.008,0.04725 -0.0741,0.211034 0.0226,0.146622"
       id="path6284" />
    <path
       style="fill:none;stroke:#000000;stroke-width:0.264583px;stroke-linecap:butt;stroke-linejoin:miter;stroke-opacity:1"
       d="m 89.686626,58.160692 c -0.03232,-0.300152 0.02162,-0.504587 0.169175,-0.744374 0.02843,-0.0462 0.06166,-0.11974 0.124063,-0.135339 0.08174,-0.02043 0.176599,-0.02672 0.259403,-0.04511 0.03856,-0.0086 0.102957,-0.06694 0.146619,-0.04511 0.273555,0.136777 0.773221,0.744768 0.902271,1.026335 0.110612,0.241334 0.03803,0.07455 0.101508,0.349628 0.05625,0.243745 0.162652,0.479153 0.225567,0.721818 0.121627,0.469135 0.204783,0.941028 0.327073,1.409801 0.05703,0.218601 0.117184,0.427754 0.180454,0.642868 0.01691,0.05753 0.03508,0.162915 0.02254,0.169175 -0.02209,0.01103 -0.07731,-0.02738 -0.09023,-0.03384"
       id="path6288" />
    <path
       style="fill:none;stroke:#000000;stroke-width:0.264583px;stroke-linecap:butt;stroke-linejoin:miter;stroke-opacity:1"
       d="m 50.453792,65.627927 c -0.212669,-0.21267 -0.445463,-0.406956 -0.638006,-0.638004 -0.05446,-0.06535 0.03804,-0.179114 0,-0.255201 -0.377441,-0.754885 -0.381222,-1.917163 0,-2.679607 0.159034,-0.318066 0.782043,-0.255201 1.084607,-0.255201 0.408786,0 0.870656,-0.05791 1.276003,0 0.784516,0.112072 1.677808,1.269203 1.914007,1.977805 0.09196,0.275865 0.04404,0.578726 0.1276,0.829403"
       id="path6644" />
    <path
       style="fill:none;stroke:#000000;stroke-width:0.264583px;stroke-linecap:butt;stroke-linejoin:miter;stroke-opacity:1"
       d="m 54.218003,64.607122 c 0.05833,-0.09789 0.07754,-0.234598 0.174982,-0.293669 0.196604,-0.119182 0.935366,-0.09604 1.148406,-0.127601 0.966565,-0.143195 1.893371,-0.191399 2.871009,-0.191399 0.238752,0 0.534909,-0.05767 0.765601,0 0.14577,0.03644 0.219898,0.228049 0.382805,0.255201 0.370086,0.06168 1.409607,0.05748 1.754505,0 0.285861,-0.04764 0.51023,-0.127601 0.797502,-0.127601"
       id="path6652" />
    <path
       style="fill:none;stroke:#000000;stroke-width:0.264583px;stroke-linecap:butt;stroke-linejoin:miter;stroke-opacity:1"
       d="m 62.112813,64.122053 c 0.106333,-0.34027 0.224475,-0.677069 0.319002,-1.020805 0.02273,-0.08266 0.01111,-0.172032 0.0319,-0.255201 0.09416,-0.376621 0.837314,-1.448774 1.276006,-1.595003 0.270439,-0.09015 0.557131,-0.164444 0.829403,-0.255202 0.119729,-0.03991 0.444304,-0.01855 0.574201,0 0.121052,0.0173 1.27843,0.497483 1.339805,0.574202 0.134438,0.16805 0.353174,0.368665 0.446601,0.574201 0.05442,0.11974 0.04685,0.260681 0.0957,0.382802 0.05658,0.141457 0.231688,0.305528 0.255201,0.446601 0.05659,0.339553 0.08834,1.197477 -0.127601,1.467405 -0.126859,0.158573 -0.284731,0.311396 -0.414702,0.478505 -0.05521,0.07099 -0.219046,0.287099 -0.319,0.287099 -0.208148,0 -0.497351,-0.357942 -0.638003,-0.478504"
       id="path6654" />
    <path
       style="fill:none;stroke:#000000;stroke-width:0.264583px;stroke-linecap:butt;stroke-linejoin:miter;stroke-opacity:1"
       d="m 51.521973,64.536753 c -0.05277,-0.0199 -0.526544,-0.574072 -0.287099,-0.733703 0.205713,-0.137141 1.154332,0.262261 0.925102,0.606103 -0.06132,0.09198 -0.333385,0.01312 -0.4147,0.0319 -0.07891,0.0182 -0.259516,0.168132 -0.223303,0.0957 0.01757,-0.03514 0.550183,-0.594278 0.733703,-0.319 0.232302,0.348446 -0.268507,0.371901 -0.478502,0.350901 -0.0853,-0.0085 -0.32653,0.01566 -0.255201,-0.0319 0.126677,-0.08445 0.297736,-0.0638 0.446604,-0.0957"
       id="path6658" />
    <path
       style="fill:none;stroke:#000000;stroke-width:0.264583px;stroke-linecap:butt;stroke-linejoin:miter;stroke-opacity:1"
       d="m 65.781324,64.728153 c -0.329631,-0.457235 -0.659265,-0.914469 -0.988899,-1.371703 -0.07336,0.05642 0.350179,-0.258088 0.382802,-0.127601 0.03137,0.125497 -2.65e-4,0.270055 -0.0638,0.382802 -0.04257,0.07568 -0.578032,0.349623 -0.669901,0.319 -0.128053,-0.04268 -0.335833,-0.117554 -0.446603,-0.1914 -0.232712,-0.155141 0.280143,-0.423016 0.350901,-0.4466 0.128061,-0.04269 0.467362,0.0021 0.574204,0.0319 0.100904,0.02803 0.193429,0.08077 0.287099,0.1276 0.07337,0.03669 0.228132,0.239543 0.0957,0.319003 -0.06774,0.04064 -0.270997,0.07464 -0.255199,0.0957 0.226288,0.301718 0.489133,0.574199 0.733698,0.861301"
       id="path6660" />
    <path
       style="fill:none;stroke:#000000;stroke-width:0.264583px;stroke-linecap:butt;stroke-linejoin:miter;stroke-opacity:1"
       d="m 56.179394,68.84327 c 0.183044,0.388459 0.95962,1.699593 1.499304,1.339802 0.315814,-0.210542 -0.04216,-1.658805 0.510402,-1.658805 0.38055,0 0.995931,2.592253 1.914006,1.499309 0.144278,-0.171757 0.247849,-0.374964 0.350901,-0.574204 0.09861,-0.190637 0.348719,-1.107331 0.350901,-1.116504 0.109686,-0.46068 0.0957,-0.466715 0.0957,-0.829403"
       id="path6664" />
    <path
       style="fill:none;stroke:#000000;stroke-width:0.264583px;stroke-linecap:butt;stroke-linejoin:miter;stroke-opacity:1"
       d="m 50.453792,65.627927 c -0.281943,0.04034 -0.566716,0.06432 -0.845825,0.121033 -0.204862,0.04163 -0.793486,1.710555 -0.893202,2.009706 -0.211664,0.634987 -0.411051,1.357104 -0.574204,2.009709 -0.124883,0.499526 0.04107,1.374299 0.127601,1.850205 0.05001,0.275069 -0.01717,0.591352 0.0638,0.861306 0.168463,0.561544 0.180729,1.254659 0.446601,1.786406 0.111419,0.222834 0.167966,0.487354 0.287102,0.701802 0.388917,0.700053 0.98498,1.560166 1.626905,2.041607 0.198876,0.149156 0.436229,0.266734 0.638003,0.414702 0.16683,0.122341 0.296965,0.281948 0.478501,0.382802 1.424369,0.791327 3.803277,0.9251 5.423022,0.9251 0.929023,0 1.825453,-0.04415 2.743409,-0.127601 0.455774,-0.04143 0.954116,0.08173 1.403606,0 0.403112,-0.07329 0.807302,-0.265014 1.212202,-0.319 0.158102,-0.02109 0.322099,0.03128 0.478502,0 0.321606,-0.06432 0.620964,-0.311428 0.925105,-0.446601 0.343786,-0.152794 0.700064,-0.314362 1.052705,-0.446603 0.30466,-0.114247 0.55802,-0.261488 0.861301,-0.382799 0.205145,-0.08206 0.449932,-0.08393 0.638003,-0.191402 0.618331,-0.353333 1.132348,-0.877142 1.626907,-1.371701 0.47307,-0.47307 0.682265,-0.49911 1.052703,-1.116507 0.09091,-0.151509 0.252048,-0.279212 0.319003,-0.446601 0.07821,-0.195524 0.149334,-0.408863 0.2233,-0.606105 0.08185,-0.218278 0.03217,-1.242197 0,-1.467403 -0.02191,-0.15327 -0.09724,-0.294785 -0.1276,-0.446603 -0.09933,-0.496634 -0.170932,-0.993691 -0.255201,-1.499307 -0.05873,-0.352343 -0.21767,-0.708178 -0.319001,-1.0527 -0.202726,-0.689269 -0.711673,-2.216203 -1.180303,-2.743412 -0.115911,-0.1304 -0.364601,-0.177749 -0.510405,-0.287102 -0.247306,-0.185478 -0.450993,-0.384995 -0.701802,-0.510399 -0.08355,-0.04177 -0.391139,-0.0118 -0.446601,-0.0638 -0.159171,-0.149222 -0.297736,-0.319003 -0.446606,-0.478502"
       id="path6666" />
    <path
       style="fill:none;stroke:#000000;stroke-width:0.264583px;stroke-linecap:butt;stroke-linejoin:miter;stroke-opacity:1"
       d="m 55.222388,78.285704 c -0.133461,-0.995868 -0.494948,-2.119855 -0.159501,-3.126211 0.294441,-0.883335 1.893728,-2.2313 2.743411,-2.424406 0.499002,-0.113408 0.994373,-0.03575 1.499304,-0.0638 0.570688,-0.0317 1.154364,-0.01834 1.722609,-0.0638 0.225936,-0.01807 0.778262,-0.174046 1.020803,-0.0638 0.948552,0.431154 2.274996,2.607164 2.615811,3.572812 0.102703,0.290996 0.195815,0.733705 0.191399,0.733705 -0.379674,0 -0.712554,-0.521155 -0.957003,-0.765604"
       id="path6670" />
    <path
       style="fill:none;stroke:#000000;stroke-width:0.264583px;stroke-linecap:butt;stroke-linejoin:miter;stroke-opacity:1"
       d="m 56.753595,65.876561 c -0.229314,0.112077 -0.33216,0.287099 -0.574201,0.287099"
       id="path6672" />
    <path
       style="fill:none;stroke:#000000;stroke-width:0.264583px;stroke-linecap:butt;stroke-linejoin:miter;stroke-opacity:1"
       d="m 58.859001,65.717059 c 0.197231,0.07221 0.477541,0.349944 0.638003,0.510403"
       id="path6674" />
    <path
       style="fill:none;stroke:#000000;stroke-width:0.264583px;stroke-linecap:butt;stroke-linejoin:miter;stroke-opacity:1"
       d="m 48.459564,67.503465 c -0.372168,-0.1276 -0.736933,-0.279281 -1.116505,-0.382802 -0.184658,-0.05036 -0.383971,0.02114 -0.574201,0 -0.60421,-0.06713 -1.205651,-0.0638 -1.818307,-0.0638 -0.09987,0 -0.626287,-0.08138 -0.701804,0.0319 -0.22419,0.336285 1.508829,0.464608 0.606102,0.957003 -0.606555,0.330851 -2.000721,-0.150979 -1.690706,1.244105 0.148709,0.669195 1.595006,0.652148 1.595006,0.510402 0,-0.01937 -0.269549,-0.01545 -0.510402,0.0957 -0.182163,0.08407 -0.360884,0.185221 -0.510403,0.319 -0.06118,0.05475 -0.828331,0.851019 -0.4147,0.988904 0.38526,0.128429 0.673918,0.01087 1.084604,-0.0638 0.283245,-0.0515 0.577157,-0.01754 0.861304,-0.0638 0.61142,-0.09953 1.27626,-0.21627 1.882105,-0.350901 0.413197,-0.09182 0.763889,-0.287104 1.180306,-0.287104"
       id="path6678" />
    <path
       style="fill:none;stroke:#000000;stroke-width:0.264583px;stroke-linecap:butt;stroke-linejoin:miter;stroke-opacity:1"
       d="m 68.333339,65.972261 c 0.75684,-0.234884 0.855133,-0.218573 1.467403,-0.542304 0.744336,-0.404066 1.488672,-0.808135 2.233009,-1.212204 0.0957,-0.0638 0.186854,-0.135012 0.287099,-0.191402 0.103619,-0.05828 0.202949,-0.13371 0.319003,-0.159499 0.03722,-0.0083 0.748046,-0.03747 0.574201,0.2233 -0.153275,0.229913 -0.627716,0.170831 -0.765603,0.446601 -0.10024,0.20048 0.965218,0.231516 1.116507,0.382805 0.302919,0.302921 -0.414705,0.221755 -0.414705,0.574201 0,0.05317 -0.04253,0.127601 0,0.159499 0.18035,0.135265 0.677172,-0.08101 0.893207,0 0.123645,0.04637 0.171391,0.22557 0.2233,0.319003 0.156207,0.281172 0.109998,0.523054 -0.159499,0.765601 -0.436491,0.392842 -1.169863,0.720383 -1.722609,0.925105 -0.452625,0.167637 -0.440193,0.100676 -0.797502,0.287099 -0.401873,0.209674 -0.851633,0.473276 -1.148405,0.829403 -0.08687,0.104248 -0.14065,0.237177 -0.255202,0.319002 -0.274365,0.195977 -0.502634,0.267682 -0.638,0.606103"
       id="path6680" />
    <path
       style="fill:none;stroke:#000000;stroke-width:0.264583px;stroke-linecap:butt;stroke-linejoin:miter;stroke-opacity:1"
       d="m 51.075372,77.456302 c -0.4466,0.212666 -0.906203,0.399946 -1.339805,0.638003 -0.112239,0.06162 -0.193495,0.167833 -0.287099,0.255198 -0.09997,0.09331 -0.594479,0.518443 -0.574204,0.574204 0.288192,0.79253 2.197944,0.394012 2.424409,0.733703 0.122626,0.183933 -1.232445,0.875715 -1.371706,1.084604 -0.01246,0.01871 -0.187005,0.309321 -0.127598,0.350903 0.484905,0.339432 1.461778,-0.03002 1.945907,-0.191399 0.948738,-0.316249 0.34417,-0.03015 0.223301,0.574201 -0.03357,0.167865 0.03418,0.36571 0.255201,0.255201 0.06725,-0.03363 0.102412,-0.110572 0.159501,-0.159504 0.70453,-0.603882 1.104683,-1.382979 1.626905,-2.137304 0.142499,-0.205832 0.316026,-0.352748 0.478501,-0.542303 0.08964,-0.104579 0.111324,-0.39061 0.223301,-0.446603 0.02853,-0.01426 0,0.0638 0,0.0957 0,0.737799 -0.11542,0.829556 0.510402,-0.255201"
       id="path6682" />
    <path
       style="fill:none;stroke:#000000;stroke-width:0.264583px;stroke-linecap:butt;stroke-linejoin:miter;stroke-opacity:1"
       d="m 68.71614,75.414695 c 0.99005,0.153148 2.021758,0.268239 2.96671,0.638003 0.150826,0.05902 0.503468,0.03975 0.446601,0.191399 -0.09066,0.241768 -1.204579,-0.0099 -1.499307,0.0638 -0.09392,0.02349 0.0024,0.34639 -0.0319,0.414702 -0.05796,0.115917 -0.522306,0.145037 -0.638003,0.159499 -0.189923,0.02373 -0.382802,0 -0.574201,0 -0.116967,0 -0.233934,0 -0.350901,0 -0.0319,0 -0.105789,-0.03026 -0.0957,0 0.08844,0.265319 0.513749,0.375145 0.701802,0.542303 0.229563,0.204055 -0.08852,0.94007 -0.350901,1.020803 -0.908172,0.279437 -1.69408,-1.468221 -1.977808,-2.073508 -0.0013,-0.0028 -0.159502,-0.559758 -0.159502,-0.382802"
       id="path6684" />
    <path
       style="fill:none;stroke:#000000;stroke-width:0.264583px;stroke-linecap:butt;stroke-linejoin:miter;stroke-opacity:1"
       d="m 85.229508,53.983707 c 0.496248,-0.120304 0.989653,-0.252997 1.488745,-0.360908 0.165203,-0.03572 0.478536,0 0.631589,0 0.06015,0 0.222994,-0.04254 0.180459,0 -0.149042,0.149053 -0.763003,0.434684 -0.85716,0.49625 -0.493215,0.322485 -0.586536,0.447948 -1.037614,0.721815 -0.282207,0.171339 -0.563779,0.344829 -0.857154,0.49625 -0.17372,0.08966 -0.364213,0.142896 -0.541364,0.225568 -0.05781,0.02698 -0.180459,0.180454 -0.135343,0.13534 0.310248,-0.310227 0.890585,-0.27068 1.353405,-0.27068 0.512757,0 1.096986,0.102566 1.578978,-0.09023"
       id="path7160" />
    <path
       style="fill:none;stroke:#000000;stroke-width:0.264583px;stroke-linecap:butt;stroke-linejoin:miter;stroke-opacity:1"
       d="m 91.319841,53.893481 c -0.116991,-0.08695 1.426853,0.09845 1.082725,0.315794 -0.683112,0.43144 -1.690539,0.434451 -2.210567,1.127839 -0.06328,0.08438 -0.06539,0.259506 -0.04511,0.360908 0.158204,0.791069 1.886989,-0.105117 2.255678,-0.315794"
       id="path7162" />
    <path
       style="fill:none;stroke:#000000;stroke-width:0.264583px;stroke-linecap:butt;stroke-linejoin:miter;stroke-opacity:1"
       d="m 95.831196,54.615296 c 0.406024,-0.09023 0.808122,-0.200403 1.21807,-0.270679 0.118573,-0.02032 0.240935,-0.0089 0.360908,0 0.286512,0.02122 0.571153,0.06299 0.857154,0.09023 0.04755,0.0045 0.148641,-0.01852 0.180454,0.04511 0.09958,0.199162 -1.665036,1.260057 -2.030106,1.533861 -0.102081,0.07656 -0.327744,0.156551 -0.270682,0.270682 0.0214,0.04281 1.813455,0.06834 1.894769,0.04511 0.208989,-0.05971 0.259405,-0.23685 0.315793,-0.406022"
       id="path7164" />
    <path
       style="fill:none;stroke:#000000;stroke-width:0.264583px;stroke-linecap:butt;stroke-linejoin:miter;stroke-opacity:1"
       d="m 102.55313,53.307003 c 0.87219,0.04511 1.74407,0.09685 2.61658,0.135342 0.27042,0.01193 0.54136,0 0.81205,0 1.21409,0 -1.39204,0.972432 -1.44364,0.992498 -0.42585,0.165607 -1.39444,0.37116 0.0451,0.451135 0.37225,0.02069 0.75434,0 1.12784,0"
       id="path7168" />
    <path
       style="fill:none;stroke:#000000;stroke-width:0.264583px;stroke-linecap:butt;stroke-linejoin:miter;stroke-opacity:1"
       d="m 111.26004,53.622799 c 0.6138,0.04989 1.32795,-0.188947 1.89477,0 0.22794,0.07598 -2.32818,1.496814 -2.30079,1.578975 0.0894,0.26823 2.13296,0.154837 2.39102,0 0.21031,-0.126187 0.23578,-0.2009 0.31579,-0.36091"
       id="path7170" />
    <path
       style="fill:none;stroke:#000000;stroke-width:0.264583px;stroke-linecap:butt;stroke-linejoin:miter;stroke-opacity:1"
       d="m 109.7713,58.089045 c 0.32553,0.04694 0.66575,-0.0363 0.9925,0 0.53874,0.05985 -0.0859,0.04511 0.45113,0.04511 0.257,0 0.7047,0.0093 0.94739,0.09023 0.11029,0.03677 -0.30648,0.293635 -0.58648,0.451136 -0.66363,0.373287 -1.34521,0.656201 -1.985,1.082725 -0.0525,0.03503 -0.29835,0.142582 -0.27069,0.225571 0.0709,0.212693 1.98835,0.385294 2.07523,0.315791 0.14103,-0.112821 0.005,-0.396751 -0.0451,-0.496245"
       id="path7176" />
  </g>
</svg>
