<?xml version="1.0" encoding="UTF-8" standalone="no"?>
<!-- Created with Inkscape (http://www.inkscape.org/) -->

<svg
   width="210mm"
   height="297mm"
   viewBox="0 0 210 297"
   version="1.1"
   id="svg5"
   inkscape:version="1.1.1 (3bf5ae0d25, 2021-09-20)"
   sodipodi:docname="logo.svg"
   xmlns:inkscape="http://www.inkscape.org/namespaces/inkscape"
   xmlns:sodipodi="http://sodipodi.sourceforge.net/DTD/sodipodi-0.dtd"
   xmlns="http://www.w3.org/2000/svg"
   xmlns:svg="http://www.w3.org/2000/svg">
  <sodipodi:namedview
     id="namedview7"
     pagecolor="#ffffff"
     bordercolor="#666666"
     borderopacity="1.0"
     inkscape:pageshadow="2"
     inkscape:pageopacity="0.0"
     inkscape:pagecheckerboard="0"
     inkscape:document-units="mm"
     showgrid="false"
     inkscape:zoom="0.38529391"
     inkscape:cx="85.648901"
     inkscape:cy="338.70247"
     inkscape:window-width="1820"
     inkscape:window-height="980"
     inkscape:window-x="50"
     inkscape:window-y="50"
     inkscape:window-maximized="1"
     inkscape:current-layer="layer1-36" />
  <defs
     id="defs2">
    <linearGradient
       id="linearGradient1992"
       inkscape:swatch="solid">
      <stop
         style="stop-color:#315e3f;stop-opacity:1;"
         offset="0"
         id="stop1990" />
    </linearGradient>
    <marker
       style="overflow:visible"
       id="Arrow1Lstart"
       refX="0.0"
       refY="0.0"
       orient="auto"
       inkscape:stockid="Arrow1Lstart"
       inkscape:isstock="true">
      <path
         transform="scale(0.8) translate(12.5,0)"
         style="fill-rule:evenodd;fill:context-stroke;stroke:context-stroke;stroke-width:1.0pt"
         d="M 0.0,0.0 L 5.0,-5.0 L -12.5,0.0 L 5.0,5.0 L 0.0,0.0 z "
         id="path1164" />
    </marker>
    <linearGradient
       id="linearGradient7367"
       inkscape:swatch="solid">
      <stop
         style="stop-color:#000000;stop-opacity:1;"
         offset="0"
         id="stop7365" />
    </linearGradient>
  </defs>
  <g
     inkscape:label="Lag 1"
     inkscape:groupmode="layer"
     id="layer1">
    <g
       inkscape:label="Layer 1"
       id="layer1-36"
       transform="matrix(3.4556538,0,0,3.4195658,-190.42128,-12.487238)">
      <g
         id="g6415"
         transform="translate(0.40436376,-1.0467366)">
        <path
           style="fill:#f8fcfa;stroke-width:0.280724"
           d="M 80.371088,57.923665 C 70.470747,56.117442 63.044614,50.387837 60.595461,42.665851 c -1.20976,-3.814277 -0.863808,-8.878319 0.836669,-12.247159 0.548548,-1.086735 0.667721,-1.842296 0.778029,-4.932721 0.151464,-4.24349 0.733236,-6.179423 2.318823,-7.716235 1.742721,-1.689111 5.18622,-1.467879 8.34636,0.536222 1.265491,0.802551 1.265491,0.802551 2.851827,0.267007 6.035338,-2.037518 13.684561,-2.037518 19.719898,0 1.586337,0.535544 1.586337,0.535544 2.851829,-0.267007 3.160134,-2.004101 6.603634,-2.225333 8.346354,-0.536222 1.58559,1.536812 2.16736,3.472745 2.31883,7.716235 0.1103,3.090425 0.22948,3.845986 0.77802,4.932721 2.08326,4.127163 2.08251,9.928402 -0.002,14.437265 -2.7254,5.895505 -8.34936,10.267661 -15.926084,12.381199 -2.83473,0.790753 -10.676608,1.19122 -13.443058,0.686509 z"
           id="path6551" />
        <path
           style="fill:#f5fbf8;stroke-width:0.280724"
           d="M 80.955165,57.997386 C 65.1566,55.374364 55.977633,42.606506 61.338454,30.710726 c 0.70619,-1.567051 0.808174,-2.126855 0.808174,-4.436174 0,-9.001086 4.238051,-12.042656 10.910694,-7.830401 1.090187,0.688205 1.090187,0.688205 3.292027,-0.01101 2.553977,-0.811038 6.816705,-1.505955 9.237769,-1.505955 2.421063,0 6.683793,0.694917 9.237768,1.505955 2.201842,0.699215 2.201842,0.699215 3.292027,0.01101 6.674217,-4.213249 10.910697,-1.170905 10.910697,7.835306 0,2.213737 0.11286,2.894853 0.68858,4.155449 5.2885,11.57977 -2.93823,24.162772 -17.774218,27.186155 -2.631628,0.536293 -8.759184,0.746176 -10.986807,0.376325 z"
           id="path6549" />
        <path
           style="fill:#f2faf5;stroke-width:0.280724"
           d="M 79.729191,57.770176 C 64.475763,54.6154 56.115112,42.108042 61.456698,30.434906 c 0.579174,-1.265688 0.690597,-1.941667 0.69408,-4.210866 0.01312,-8.54634 3.435587,-11.492168 9.698498,-8.347807 2.456041,1.233081 2.456041,1.233081 3.983619,0.707517 5.903441,-2.031082 13.625598,-2.023997 19.560609,0.01795 1.579738,0.54351 1.579738,0.54351 2.904788,-0.232448 6.784418,-3.973 10.711428,-1.096974 10.725168,7.854791 0.003,2.266942 0.11526,2.946437 0.69273,4.210866 5.07224,11.106266 -2.28227,23.151002 -16.436052,26.91788 -3.037132,0.808299 -10.543058,1.039492 -13.550947,0.41739 z"
           id="path6547" />
        <path
           style="fill:#ecf8f2;stroke-width:0.280724"
           d="M 79.926068,57.774693 C 64.823521,55.034387 56.257981,42.36165 61.435096,30.417251 c 0.557062,-1.285228 0.698147,-2.160529 0.794848,-4.93128 0.287258,-8.230766 3.629538,-10.769182 9.872373,-7.49793 2.164867,1.134393 2.164867,1.134393 3.711511,0.602269 5.908869,-2.032949 13.637712,-2.032949 19.546579,0 1.546646,0.532124 1.546646,0.532124 3.722237,-0.60789 6.398736,-3.352941 9.944966,-0.305795 9.944966,8.545339 0,1.95223 0.12858,2.680422 0.68993,3.907147 4.76859,10.420944 -1.47386,21.880547 -14.305067,26.260587 -4.251209,1.451188 -10.887523,1.91365 -15.486405,1.0792 z"
           id="path6545" />
        <path
           style="fill:#e4f6ec;stroke-width:0.280724"
           d="M 80.534078,57.906091 C 64.846153,55.072869 55.70245,41.649028 61.594119,30.100401 c 0.424317,-0.831729 0.552509,-1.650185 0.552509,-3.527535 0,-8.886039 3.424537,-11.881184 9.838012,-8.604456 2.268323,1.158916 2.268323,1.158916 3.770699,0.642023 5.918927,-2.036409 13.744631,-2.036409 19.663557,0 1.502378,0.516893 1.502378,0.516893 3.770699,-0.642023 6.413475,-3.276728 9.838015,-0.281583 9.838015,8.604456 0,1.87735 0.12819,2.695806 0.55251,3.527535 4.97846,9.758599 -1.19535,21.965008 -13.31064,26.316804 -4.123724,1.481234 -11.771117,2.204832 -15.735402,1.488886 z"
           id="path6543" />
        <path
           style="fill:#def4e8;stroke-width:0.280724"
           d="M 80.016218,57.760059 C 64.778069,54.88272 56.215003,42.337623 61.433969,30.536614 c 0.585767,-1.324522 0.712659,-2.048267 0.712659,-4.064722 0,-8.769127 3.444831,-11.729381 9.883711,-8.493391 2.327802,1.169884 2.327802,1.169884 4.011422,0.592264 5.658285,-1.941258 13.432427,-1.941258 19.090715,0 1.683619,0.57762 1.683619,0.57762 4.01142,-0.592264 6.478694,-3.255998 9.875714,-0.277146 9.882084,8.665619 10e-4,1.829666 0.14265,2.599923 0.71429,3.892494 4.91582,11.115547 -2.41324,23.07418 -16.375454,26.719384 -3.480851,0.908767 -9.917991,1.151843 -13.348598,0.504061 z"
           id="path6541" />
        <path
           style="fill:#d9f2e5;stroke-width:0.280724"
           d="M 80.016218,57.760059 C 64.887254,54.903339 55.995527,41.921293 61.439129,30.637249 c 0.594513,-1.232366 0.708278,-1.872873 0.712374,-4.010737 0.017,-8.874368 3.457314,-11.880082 9.889203,-8.63995 2.317435,1.167432 2.317435,1.167432 3.956066,0.620127 5.974495,-1.995492 13.3343,-1.987104 19.32821,0.02203 1.596854,0.535258 1.596854,0.535258 3.850686,-0.636388 6.321012,-3.285957 9.830122,-0.209071 9.847062,8.634183 0.004,2.137864 0.11786,2.778371 0.71238,4.010737 5.10166,10.575248 -2.51783,23.00495 -16.307746,26.602883 -3.545516,0.92506 -9.950547,1.173372 -13.411146,0.519927 z"
           id="path6539" />
        <path
           style="fill:#d4f1e1;stroke-width:0.280724"
           d="m 81.797338,58.027777 c -3.358724,-0.59668 -4.317101,-0.826102 -6.375424,-1.526192 -12.33678,-4.196058 -18.817922,-16.226743 -13.943662,-25.88306 0.559351,-1.108121 0.669172,-1.749205 0.673251,-3.930142 0.01675,-8.957432 3.47717,-11.974953 9.928841,-8.658061 1.29563,0.666101 2.500472,1.121612 2.677428,1.012248 0.176955,-0.109364 1.170037,-0.442723 2.206848,-0.740797 5.641829,-1.621974 12.239396,-1.556669 17.722436,0.175422 2.211822,0.698714 2.211822,0.698714 4.477133,-0.478899 6.338731,-3.295168 9.841671,-0.222773 9.858541,8.646831 0.004,2.11901 0.12435,2.823853 0.69481,4.070504 4.94351,10.803198 -2.52479,22.960275 -16.290176,26.517567 -2.705165,0.699077 -9.539309,1.165994 -11.630026,0.794579 z"
           id="path6537" />
        <path
           style="fill:#d0f0df;stroke-width:0.280724"
           d="M 80.336048,57.768887 C 65.527464,55.277495 56.37193,42.68533 61.195653,31.443936 c 0.620684,-1.446467 0.78707,-2.37507 0.966941,-5.396516 0.528592,-8.879208 3.526277,-11.290282 9.949752,-8.002705 2.245795,1.149413 2.245795,1.149413 3.887844,0.581263 5.517982,-1.909226 13.655874,-1.909226 19.173855,0 1.64205,0.56815 1.64205,0.56815 3.887845,-0.581263 6.44373,-3.297945 9.43477,-0.858594 9.96153,8.124169 0.17008,2.900276 0.34015,3.83879 0.95587,5.275052 6.25247,14.584767 -10.579191,29.532281 -29.643242,26.324951 z"
           id="path6535" />
        <path
           style="fill:#cff0de;stroke-width:0.280724"
           d="M 80.114705,57.714576 C 65.415954,55.103881 56.411784,42.601328 61.194946,31.443936 c 0.615724,-1.436262 0.785787,-2.374776 0.955865,-5.275052 0.526606,-8.980023 3.448693,-11.376025 9.915193,-8.130087 2.292137,1.150566 2.292137,1.150566 3.934186,0.584798 5.531942,-1.906029 13.641914,-1.906029 19.173855,0 1.64205,0.565768 1.64205,0.565768 4.028208,-0.63464 6.453617,-3.246634 9.814767,-0.186687 9.823237,8.942945 0.002,1.843234 0.13765,2.580067 0.69922,3.789779 6.92549,14.918768 -10.117153,30.455085 -29.610005,26.992897 z"
           id="path6533" />
        <path
           style="fill:#caeddb;stroke-width:0.280724"
           d="M 81.119318,57.879712 C 65.543793,55.608025 56.008491,42.442655 61.449529,30.721679 c 0.561565,-1.209712 0.697512,-1.946545 0.69922,-3.789779 0.0085,-9.129632 3.369612,-12.189579 9.823234,-8.942945 2.386158,1.200408 2.386158,1.200408 4.028207,0.63464 2.737211,-0.943105 5.952385,-1.418994 9.586928,-1.418994 3.634542,0 6.849715,0.475889 9.586927,1.418994 1.64205,0.565768 1.64205,0.565768 4.028208,-0.63464 6.453617,-3.246634 9.814767,-0.186687 9.823237,8.942945 0.002,1.843234 0.13765,2.580067 0.69922,3.789779 6.75752,14.556908 -9.45683,29.950845 -28.605392,27.158033 z"
           id="path6531" />
        <path
           style="fill:#c6ecd8;stroke-width:0.280724"
           d="M 81.119318,57.899259 C 65.394719,55.42072 56.005891,42.448256 61.449529,30.721679 c 0.55812,-1.20229 0.697099,-1.947073 0.697099,-3.735704 0,-9.426386 3.904827,-12.622977 10.507788,-8.601943 1.384244,0.842969 1.384244,0.842969 3.78978,0.117892 5.941088,-1.790764 12.26348,-1.788289 18.28638,0.0072 2.406073,0.717258 2.406073,0.717258 3.78978,-0.125381 6.415394,-3.906794 10.007344,-1.30962 10.404954,7.523357 0.11527,2.56056 0.28429,3.551055 0.81715,4.788535 5.71352,13.268766 -5.80774,26.87135 -23.172807,27.358985 -2.084378,0.05853 -4.537029,-0.01137 -5.450335,-0.155319 z"
           id="path6529" />
        <path
           style="fill:#c2ebd5;stroke-width:0.280724"
           d="M 81.119318,57.899259 C 65.408588,55.422907 56.134324,42.631846 61.43227,30.746893 c 0.602195,-1.350913 0.736063,-2.133546 0.827844,-4.839835 0.297125,-8.761173 4.149924,-11.48194 10.543687,-7.445735 1.193306,0.753301 1.193306,0.753301 3.759981,0.02543 3.568591,-1.011992 5.451799,-1.278905 9.023336,-1.278905 3.571536,0 5.454745,0.266913 9.023336,1.278905 2.566675,0.727866 2.566675,0.727866 3.759981,-0.02543 6.393765,-4.036205 10.246565,-1.315438 10.543685,7.445735 0.0918,2.706289 0.22565,3.488922 0.82785,4.839835 5.81594,13.046994 -5.87294,26.821894 -23.172317,27.307685 -2.084378,0.05853 -4.537029,-0.01137 -5.450335,-0.155319 z"
           id="path6527" />
        <path
           style="fill:#f9c0bf;stroke-width:0.280724"
           d="M 80.786385,57.781534 C 65.413725,55.393496 56.10536,42.403772 61.430928,30.771199 c 0.591597,-1.292218 0.727223,-2.080395 0.829177,-4.818693 0.318607,-8.557153 3.380463,-11.041007 9.706936,-7.874507 2.235544,1.118925 2.235544,1.118925 4.125078,0.535307 6.032142,-1.863139 12.957856,-1.863139 18.989997,0 1.889534,0.583618 1.889534,0.583618 4.125077,-0.535307 6.320627,-3.163572 9.418687,-0.657805 9.694817,7.841345 0.0893,2.750143 0.21735,3.493685 0.84574,4.912677 6.55923,14.811817 -9.70006,29.941626 -28.961365,26.949513 z"
           id="path6525" />
        <path
           style="fill:#fabfbe;stroke-width:0.280724"
           d="M 80.786385,57.781534 C 65.413725,55.393496 56.10536,42.403772 61.430928,30.771199 c 0.591597,-1.292218 0.727223,-2.080395 0.829177,-4.818693 0.318607,-8.557153 3.380463,-11.041007 9.706936,-7.874507 2.235544,1.118925 2.235544,1.118925 4.125078,0.535307 6.032142,-1.863139 12.957856,-1.863139 18.989997,0 1.889534,0.583618 1.889534,0.583618 4.125077,-0.535307 6.320627,-3.163572 9.418687,-0.657805 9.694817,7.841345 0.0893,2.750143 0.21735,3.493685 0.84574,4.912677 6.55923,14.811817 -9.70006,29.941626 -28.961365,26.949513 z M 96.992266,34.960421 c 0.349185,-0.445245 0.339256,-0.455174 -0.10599,-0.105989 -0.467617,0.36673 -0.616325,0.597257 -0.385277,0.597257 0.05829,0 0.279363,-0.221071 0.491267,-0.491268 z"
           id="path6523" />
        <path
           style="fill:#bbe9d1;stroke-width:0.280724"
           d="M 80.786385,57.781534 C 65.413725,55.393496 56.10536,42.403772 61.430928,30.771199 c 0.591597,-1.292218 0.727223,-2.080395 0.829177,-4.818693 0.318607,-8.557153 3.380463,-11.041007 9.706936,-7.874507 2.235544,1.118925 2.235544,1.118925 4.125078,0.535307 6.032142,-1.863139 12.957856,-1.863139 18.989997,0 1.889534,0.583618 1.889534,0.583618 4.125077,-0.535307 6.320627,-3.163572 9.418687,-0.657805 9.694817,7.841345 0.0893,2.750143 0.21735,3.493685 0.84574,4.912677 6.55923,14.811817 -9.70006,29.941626 -28.961365,26.949513 z M 73.500658,43.665032 c 4.600289,-3.229629 2.397477,-10.271989 -3.213021,-10.271989 -5.127919,0 -7.645398,5.937724 -4.044281,9.538841 2.006622,2.006623 5.011041,2.310136 7.257302,0.733148 z m 29.168902,0.747227 c 1.63149,-0.45302 3.41831,-2.383772 3.78397,-4.088783 1.05611,-4.924479 -4.14189,-8.712431 -8.472757,-6.174374 -5.822519,3.412224 -1.861663,12.082031 4.688787,10.263157 z"
           id="path6521" />
        <path
           style="fill:#f3c1be;stroke-width:0.280724"
           d="M 81.566098,57.888793 C 65.979817,55.866081 56.330775,43.091188 61.326078,31.091931 c 0.73452,-1.764395 0.859963,-2.452754 0.951764,-5.222725 0.275792,-8.32167 3.410862,-10.898662 9.555016,-7.854114 2.447772,1.212919 2.447772,1.212919 4.407836,0.594313 5.917739,-1.867669 13.112687,-1.856654 18.856379,0.02887 1.79651,0.589752 1.79651,0.589752 4.244293,-0.623173 6.146004,-3.045463 9.257504,-0.486224 9.549384,7.854442 0.0966,2.761563 0.22545,3.464158 0.95755,5.222724 6.06215,14.561935 -9.4326,29.242739 -28.282202,26.796529 z m -8.06544,-14.223761 c 4.600289,-3.229629 2.397477,-10.271989 -3.213021,-10.271989 -5.127919,0 -7.645398,5.937724 -4.044281,9.538841 2.006622,2.006623 5.011041,2.310136 7.257302,0.733148 z m 29.168902,0.747227 c 1.63149,-0.45302 3.41831,-2.383772 3.78397,-4.088783 1.05611,-4.924479 -4.14189,-8.712431 -8.472757,-6.174374 -5.822519,3.412224 -1.861663,12.082031 4.688787,10.263157 z"
           id="path6519" />
        <path
           style="fill:#ebc3bd;stroke-width:0.280724"
           d="M 81.566098,57.888793 C 65.979817,55.866081 56.330775,43.091188 61.326078,31.091931 c 0.73452,-1.764395 0.859963,-2.452754 0.951764,-5.222725 0.275792,-8.32167 3.410862,-10.898662 9.555016,-7.854114 2.447772,1.212919 2.447772,1.212919 4.407836,0.594313 5.917739,-1.867669 13.112687,-1.856654 18.856379,0.02887 1.79651,0.589752 1.79651,0.589752 4.244293,-0.623173 6.146004,-3.045463 9.257504,-0.486224 9.549384,7.854442 0.0966,2.761563 0.22545,3.464158 0.95755,5.222724 6.06215,14.561935 -9.4326,29.242739 -28.282202,26.796529 z M 72.693653,44.184236 c 2.361067,-1.072373 3.863316,-4.054848 3.228975,-6.410612 -1.589189,-5.901797 -9.680793,-5.901797 -11.269982,0 -0.892098,3.312998 2.048855,6.92964 5.634991,6.92964 0.694793,0 1.7775,-0.233563 2.406016,-0.519028 z m 30.598967,0 c 2.36106,-1.072373 3.86331,-4.054848 3.22897,-6.410612 -1.58919,-5.901797 -9.680794,-5.901797 -11.269981,0 -0.8921,3.312998 2.048854,6.92964 5.634991,6.92964 0.69479,0 1.7775,-0.233563 2.40602,-0.519028 z"
           id="path6517" />
        <path
           style="fill:#b6e8cd;stroke-width:0.280724"
           d="M 81.566098,57.888793 C 65.979817,55.866081 56.330775,43.091188 61.326078,31.091931 c 0.73452,-1.764395 0.859963,-2.452754 0.951764,-5.222725 0.275792,-8.32167 3.410862,-10.898662 9.555016,-7.854114 2.447772,1.212919 2.447772,1.212919 4.407836,0.594313 5.917739,-1.867669 13.112687,-1.856654 18.856379,0.02887 1.79651,0.589752 1.79651,0.589752 4.244293,-0.623173 6.146004,-3.045463 9.257504,-0.486224 9.549384,7.854442 0.0966,2.761563 0.22545,3.464158 0.95755,5.222724 6.06215,14.561935 -9.4326,29.242739 -28.282202,26.796529 z m -9.09383,-13.609177 c 6.573332,-2.745838 3.303108,-12.44621 -3.634809,-10.78183 -3.011744,0.722506 -4.977731,3.986129 -4.181805,6.941973 0.87661,3.25548 4.708853,5.138044 7.816614,3.839857 z m 30.802902,-0.08757 c 4.91645,-2.233498 4.28398,-9.441436 -0.93839,-10.694263 -5.760356,-1.381888 -9.722916,5.556877 -5.475567,9.588158 1.706743,1.619915 4.298917,2.066943 6.413957,1.106105 z"
           id="path6515" />
        <path
           style="fill:#e4c5bc;stroke-width:0.280724"
           d="M 81.575121,57.889781 C 65.710698,55.829326 56.077514,42.640915 61.577256,30.511493 c 0.615077,-1.356522 0.756909,-2.012079 0.646757,-2.989344 -0.198766,-1.763452 0.413128,-5.978066 1.099594,-7.5738 1.548177,-3.598833 4.376972,-4.133557 9.004412,-1.702095 1.90002,0.998355 1.90002,0.998355 3.88638,0.37145 5.956296,-1.879838 13.127229,-1.868813 18.90858,0.02907 1.822415,0.598257 1.822415,0.598257 3.722835,-0.40031 4.627866,-2.431685 7.456586,-1.897065 9.004816,1.701884 0.68646,1.595734 1.29836,5.810348 1.09959,7.5738 -0.11031,0.978729 0.032,1.633434 0.65225,3.00146 6.65237,14.671474 -8.89409,29.851179 -28.027349,27.366173 z M 72.472268,44.279616 c 6.573332,-2.745838 3.303108,-12.44621 -3.634809,-10.78183 -3.011744,0.722506 -4.977731,3.986129 -4.181805,6.941973 0.87661,3.25548 4.708853,5.138044 7.816614,3.839857 z m 30.802902,-0.08757 c 4.91645,-2.233498 4.28398,-9.441436 -0.93839,-10.694263 -5.760356,-1.381888 -9.722916,5.556877 -5.475567,9.588158 1.706743,1.619915 4.298917,2.066943 6.413957,1.106105 z"
           id="path6513" />
        <path
           style="fill:#b2e6ca;stroke-width:0.280724"
           d="M 81.575121,57.889781 C 65.710698,55.829326 56.077514,42.640915 61.577256,30.511493 c 0.615077,-1.356522 0.756909,-2.012079 0.646757,-2.989344 -0.198766,-1.763452 0.413128,-5.978066 1.099594,-7.5738 1.548177,-3.598833 4.376972,-4.133557 9.004412,-1.702095 1.90002,0.998355 1.90002,0.998355 3.88638,0.37145 5.956296,-1.879838 13.127229,-1.868813 18.90858,0.02907 1.822415,0.598257 1.822415,0.598257 3.722835,-0.40031 4.627866,-2.431685 7.456586,-1.897065 9.004816,1.701884 0.68646,1.595734 1.29836,5.810348 1.09959,7.5738 -0.11031,0.978729 0.032,1.633434 0.65225,3.00146 6.65237,14.671474 -8.89409,29.851179 -28.027349,27.366173 z M 72.676202,44.192049 c 3.74296,-1.700391 4.579113,-6.272917 1.678348,-9.178086 -2.566242,-2.570137 -6.497535,-2.268235 -8.751711,0.672084 -2.797573,3.64912 -0.0086,9.017217 4.684798,9.017217 0.694793,0 1.769647,-0.230047 2.388565,-0.511215 z m 30.598968,0 c 3.92414,-1.782704 4.58866,-6.935639 1.24109,-9.623986 -3.49085,-2.803412 -8.697868,-0.735165 -9.424658,3.743513 -0.51194,3.154718 2.422846,6.391688 5.794998,6.391688 0.69479,0 1.76965,-0.230047 2.38857,-0.511215 z"
           id="path6511" />
        <path
           style="fill:#dbc8bc;stroke-width:0.280724"
           d="M 82.639512,57.998874 C 66.05859,56.283622 55.959953,43.050617 61.614417,30.448109 c 0.63079,-1.405885 0.762326,-2.024687 0.632192,-2.974113 -0.22747,-1.659576 0.380234,-5.905974 1.076998,-7.525647 1.548956,-3.600644 4.376607,-4.133749 9.010668,-1.698808 1.906276,1.001643 1.906276,1.001643 4.351228,0.272273 5.948331,-1.774484 11.854898,-1.774484 17.803229,0 2.444953,0.72937 2.444953,0.72937 4.351229,-0.272273 4.642279,-2.43926 7.461329,-1.90273 9.018229,1.716378 0.67998,1.580666 1.30206,6.121839 1.05244,7.682858 -0.12272,0.767489 -0.0197,1.371131 0.36219,2.121806 7.30733,14.364593 -7.62799,30.194341 -26.633308,28.228291 z m -9.96331,-13.806825 c 3.74296,-1.700391 4.579113,-6.272917 1.678348,-9.178086 -2.566242,-2.570137 -6.497535,-2.268235 -8.751711,0.672084 -2.797573,3.64912 -0.0086,9.017217 4.684798,9.017217 0.694793,0 1.769647,-0.230047 2.388565,-0.511215 z m 30.598968,0 c 3.92414,-1.782704 4.58866,-6.935639 1.24109,-9.623986 -3.49085,-2.803412 -8.697868,-0.735165 -9.424658,3.743513 -0.51194,3.154718 2.422846,6.391688 5.794998,6.391688 0.69479,0 1.76965,-0.230047 2.38857,-0.511215 z"
           id="path6509" />
        <path
           style="fill:#aee5c8;stroke-width:0.280724"
           d="M 82.639512,57.998874 C 66.05859,56.283622 55.959953,43.050617 61.614417,30.448109 c 0.63079,-1.405885 0.762326,-2.024687 0.632192,-2.974113 -0.22747,-1.659576 0.380234,-5.905974 1.076998,-7.525647 1.548956,-3.600644 4.376607,-4.133749 9.010668,-1.698808 1.906276,1.001643 1.906276,1.001643 4.351228,0.272273 5.948331,-1.774484 11.854898,-1.774484 17.803229,0 2.444953,0.72937 2.444953,0.72937 4.351229,-0.272273 4.642279,-2.43926 7.461329,-1.90273 9.018229,1.716378 0.67998,1.580666 1.30206,6.121839 1.05244,7.682858 -0.12272,0.767489 -0.0197,1.371131 0.36219,2.121806 7.30733,14.364593 -7.62799,30.194341 -26.633308,28.228291 z m -9.857774,-13.82819 c 3.81135,-1.944405 4.475109,-6.731934 1.317692,-9.504183 -3.756822,-3.298533 -9.726898,-0.48256 -9.699275,4.574967 0.02112,3.867372 4.87154,6.719906 8.381583,4.929216 z m 30.631852,-0.01678 c 3.69722,-1.886181 4.4561,-6.284595 1.58045,-9.16024 -4.89454,-4.894546 -12.71862,1.338542 -8.958791,7.137064 1.527127,2.355176 4.909561,3.282654 7.378341,2.023176 z"
           id="path6507" />
        <path
           style="fill:#d4cabb;stroke-width:0.280724"
           d="M 81.797338,57.876635 C 68.882247,56.398969 59.000382,46.594666 60.043826,36.293862 c 0.19503,-1.925323 1.290784,-5.59319 1.99577,-6.68053 0.294682,-0.454506 0.36463,-1.001934 0.236876,-1.853857 -0.252515,-1.683891 0.344276,-6.205884 1.020999,-7.736294 1.617124,-3.657128 4.47119,-4.218676 9.002415,-1.771258 1.909035,1.031113 1.909035,1.031113 3.808354,0.423152 5.989776,-1.917294 12.967979,-1.917294 18.957757,0 1.899317,0.607961 1.899317,0.607961 3.808353,-0.423152 6.46544,-3.492131 9.82642,-0.787752 10.01156,8.055704 0.0458,2.185874 0.19525,3.133958 0.65856,4.176675 6.58095,14.811227 -8.40481,29.605365 -27.747132,27.392333 z m -9.0156,-13.705951 c 3.81135,-1.944405 4.475109,-6.731934 1.317692,-9.504183 -3.756822,-3.298533 -9.726898,-0.48256 -9.699275,4.574967 0.02112,3.867372 4.87154,6.719906 8.381583,4.929216 z m 30.631852,-0.01678 c 3.69722,-1.886181 4.4561,-6.284595 1.58045,-9.16024 -4.89454,-4.894546 -12.71862,1.338542 -8.958791,7.137064 1.527127,2.355176 4.909561,3.282654 7.378341,2.023176 z"
           id="path6505" />
        <path
           style="fill:#aae3c5;stroke-width:0.280724"
           d="M 81.797338,57.876635 C 68.882247,56.398969 59.000382,46.594666 60.043826,36.293862 c 0.19503,-1.925323 1.290784,-5.59319 1.99577,-6.68053 0.294682,-0.454506 0.36463,-1.001934 0.236876,-1.853857 -0.252515,-1.683891 0.344276,-6.205884 1.020999,-7.736294 1.617124,-3.657128 4.47119,-4.218676 9.002415,-1.771258 1.909035,1.031113 1.909035,1.031113 3.808354,0.423152 5.989776,-1.917294 12.967979,-1.917294 18.957757,0 1.899317,0.607961 1.899317,0.607961 3.808353,-0.423152 6.46544,-3.492131 9.82642,-0.787752 10.01156,8.055704 0.0458,2.185874 0.19525,3.133958 0.65856,4.176675 6.58095,14.811227 -8.40481,29.605365 -27.747132,27.392333 z M 73.611174,43.764352 c 2.83229,-1.962778 3.339314,-5.937207 1.084966,-8.504767 -4.726152,-5.38279 -13.054777,0.761499 -9.284164,6.849221 1.66874,2.694209 5.565135,3.480953 8.199198,1.655546 z m 30.598966,0 c 4.63036,-3.208843 2.31688,-10.558459 -3.32354,-10.558459 -5.214825,0 -7.801083,6.446265 -4.013526,10.003741 1.889446,1.774667 5.213976,2.026019 7.337066,0.554718 z"
           id="path6503" />
        <path
           style="fill:#cbccba;stroke-width:0.280724"
           d="M 81.797338,57.876635 C 66.892353,56.171299 57.02413,44.110137 60.926937,32.368367 c 0.38405,-1.155432 0.846691,-2.279619 1.028091,-2.498193 0.20078,-0.241925 0.348593,-1.596889 0.377805,-3.463249 0.140129,-8.952957 3.450378,-11.674807 9.937397,-8.17102 1.87938,1.015096 1.87938,1.015096 4.510165,0.279674 6.375082,-1.78212 11.238364,-1.78212 17.613447,0 2.630784,0.735422 2.630784,0.735422 4.510163,-0.279674 6.440075,-3.478434 9.903905,-0.673911 9.903905,8.018803 0,1.894405 0.12516,3.046499 0.37245,3.428395 0.20484,0.316351 0.68582,1.522629 1.06883,2.680617 4.71344,14.250495 -10.17798,27.603703 -28.451852,25.512915 z M 73.611174,43.764352 c 2.83229,-1.962778 3.339314,-5.937207 1.084966,-8.504767 -4.726152,-5.38279 -13.054777,0.761499 -9.284164,6.849221 1.66874,2.694209 5.565135,3.480953 8.199198,1.655546 z m 30.598966,0 c 4.63036,-3.208843 2.31688,-10.558459 -3.32354,-10.558459 -5.214825,0 -7.801083,6.446265 -4.013526,10.003741 1.889446,1.774667 5.213976,2.026019 7.337066,0.554718 z"
           id="path6501" />
        <path
           style="fill:#c5ceba;stroke-width:0.280724"
           d="M 81.797338,57.876635 C 66.892353,56.171299 57.02413,44.110137 60.926937,32.368367 c 0.38405,-1.155432 0.846691,-2.279619 1.028091,-2.498193 0.20078,-0.241925 0.348593,-1.596889 0.377805,-3.463249 0.140129,-8.952957 3.450378,-11.674807 9.937397,-8.17102 1.87938,1.015096 1.87938,1.015096 4.510165,0.279674 6.375082,-1.78212 11.238364,-1.78212 17.613447,0 2.630784,0.735422 2.630784,0.735422 4.510163,-0.279674 6.440075,-3.478434 9.903905,-0.673911 9.903905,8.018803 0,1.894405 0.12516,3.046499 0.37245,3.428395 0.20484,0.316351 0.68582,1.522629 1.06883,2.680617 4.71344,14.250495 -10.17798,27.603703 -28.451852,25.512915 z M 73.582669,43.815127 c 3.008623,-1.991013 3.380892,-6.504427 0.74069,-8.980177 -5.233283,-4.907311 -12.920665,2.039726 -8.641899,7.809628 1.609249,2.170067 5.516199,2.748873 7.901209,1.170549 z m 30.598961,0 c 3.00862,-1.991013 3.38089,-6.504427 0.74069,-8.980177 -4.986815,-4.676197 -12.509699,1.464306 -8.911382,7.273856 1.647488,2.659896 5.510642,3.466656 8.170692,1.706321 z"
           id="path6499" />
        <path
           style="fill:#c1d0ba;stroke-width:0.280724"
           d="M 81.797338,57.876635 C 66.892353,56.171299 57.02413,44.110137 60.926937,32.368367 c 0.38405,-1.155432 0.846691,-2.279619 1.028091,-2.498193 0.20078,-0.241925 0.348593,-1.596889 0.377805,-3.463249 0.140129,-8.952957 3.450378,-11.674807 9.937397,-8.17102 1.87938,1.015096 1.87938,1.015096 4.510165,0.279674 6.375082,-1.78212 11.238364,-1.78212 17.613447,0 2.630784,0.735422 2.630784,0.735422 4.510163,-0.279674 6.440075,-3.478434 9.903905,-0.673911 9.903905,8.018803 0,1.894405 0.12516,3.046499 0.37245,3.428395 0.20484,0.316351 0.68582,1.522629 1.06883,2.680617 4.71344,14.250495 -10.17798,27.603703 -28.451852,25.512915 z M 73.689412,43.724566 c 2.820032,-1.99208 3.275091,-5.881459 0.992325,-8.481386 -3.785167,-4.311067 -10.86287,-1.166721 -10.188604,4.526399 0.500005,4.221759 5.670682,6.44548 9.196279,3.954987 z m 30.030458,0.337847 c 4.19497,-2.214685 3.93114,-8.345072 -0.4447,-10.332974 -4.542294,-2.063518 -9.538987,2.381087 -7.964291,7.084304 1.137734,3.398118 5.173001,4.957075 8.408991,3.24867 z"
           id="path6497" />
        <path
           style="fill:#a4e2c1;stroke-width:0.280724"
           d="M 81.797338,57.876635 C 66.892353,56.171299 57.02413,44.110137 60.926937,32.368367 c 0.38405,-1.155432 0.846691,-2.279619 1.028091,-2.498193 0.20078,-0.241925 0.348593,-1.596889 0.377805,-3.463249 0.140129,-8.952957 3.450378,-11.674807 9.937397,-8.17102 1.87938,1.015096 1.87938,1.015096 4.510165,0.279674 6.375082,-1.78212 11.238364,-1.78212 17.613447,0 2.630784,0.735422 2.630784,0.735422 4.510163,-0.279674 6.440075,-3.478434 9.903905,-0.673911 9.903905,8.018803 0,1.894405 0.12516,3.046499 0.37245,3.428395 0.20484,0.316351 0.68582,1.522629 1.06883,2.680617 4.71344,14.250495 -10.17798,27.603703 -28.451852,25.512915 z M 73.120909,44.062413 c 3.291832,-1.737884 4.044465,-5.990527 1.560828,-8.819233 -2.833399,-3.227063 -7.938107,-2.457065 -9.757098,1.471768 -2.297625,4.962635 3.266176,9.95025 8.19627,7.347465 z m 30.598961,0 c 6.4566,-3.408687 1.4302,-13.354931 -5.221837,-10.332974 -5.740972,2.608069 -3.919444,10.986156 2.388567,10.986156 1.12911,0 1.95799,-0.19109 2.83327,-0.653182 z"
           id="path6495" />
        <path
           style="fill:#bad1b9;stroke-width:0.280724"
           d="M 82.078063,57.891235 C 65.777599,55.882343 55.712051,42.265701 61.73764,30.374773 c 0.57719,-1.139029 0.664758,-1.712843 0.667178,-4.371858 0.0078,-8.541486 3.854634,-11.385734 10.217291,-7.554342 1.443886,0.869463 1.539807,0.888471 2.600147,0.515262 6.335734,-2.23 14.397962,-2.228249 20.742733,0.0045 1.067505,0.37566 1.167019,0.358344 2.386158,-0.41521 6.298983,-3.996766 10.031483,-1.492281 10.332203,6.932843 0.11004,3.082962 0.23017,3.84736 0.77395,4.924668 7.08062,14.02787 -8.62523,29.791865 -27.379237,27.480596 z M 73.120909,44.062413 c 3.291832,-1.737884 4.044465,-5.990527 1.560828,-8.819233 -2.833399,-3.227063 -7.938107,-2.457065 -9.757098,1.471768 -2.297625,4.962635 3.266176,9.95025 8.19627,7.347465 z m 30.598961,0 c 6.4566,-3.408687 1.4302,-13.354931 -5.221837,-10.332974 -5.740972,2.608069 -3.919444,10.986156 2.388567,10.986156 1.12911,0 1.95799,-0.19109 2.83327,-0.653182 z"
           id="path6493" />
        <path
           style="fill:#a0e1be;stroke-width:0.280724"
           d="M 82.078063,57.891235 C 65.777599,55.882343 55.712051,42.265701 61.73764,30.374773 c 0.57719,-1.139029 0.664758,-1.712843 0.667178,-4.371858 0.0078,-8.541486 3.854634,-11.385734 10.217291,-7.554342 1.443886,0.869463 1.539807,0.888471 2.600147,0.515262 6.335734,-2.23 14.397962,-2.228249 20.742733,0.0045 1.067505,0.37566 1.167019,0.358344 2.386158,-0.41521 6.298983,-3.996766 10.031483,-1.492281 10.332203,6.932843 0.11004,3.082962 0.23017,3.84736 0.77395,4.924668 7.08062,14.02787 -8.62523,29.791865 -27.379237,27.480596 z M 73.31171,43.965298 c 3.126303,-1.783876 3.795838,-5.959272 1.394199,-8.694588 -3.731681,-4.25015 -10.661663,-1.453813 -10.257124,4.13888 0.320105,4.425399 4.934494,6.79728 8.862925,4.555708 z m 30.59896,0.0016 c 3.83785,-2.194991 3.80084,-7.72662 -0.0665,-9.944927 -2.45132,-1.406069 -5.281238,-0.993509 -7.223686,1.053107 -4.636501,4.885142 1.407165,12.256541 7.290226,8.89182 z"
           id="path6491" />
        <path
           style="fill:#b4d3b8;stroke-width:0.280724"
           d="M 82.247852,57.895531 C 66.121204,56.096401 56.087943,42.940997 61.546305,30.75209 c 0.767147,-1.713092 0.860599,-2.238328 0.961946,-5.406481 0.164769,-5.150784 1.364015,-7.75253 3.886533,-8.431774 1.624123,-0.437331 4.866015,0.469238 6.927672,1.937266 0.760697,0.541665 0.773754,0.541088 2.749246,-0.12147 5.824688,-1.953533 13.196362,-1.956813 19.005614,-0.0085 1.959704,0.657261 1.959704,0.657261 3.533588,-0.27852 6.310206,-3.751845 9.778736,-1.326784 10.073986,7.043317 0.11077,3.140517 0.2229,3.835963 0.80408,4.987168 C 116.51135,44.38302 101.009,59.98853 82.247852,57.895488 Z M 73.31171,43.965298 c 3.126303,-1.783876 3.795838,-5.959272 1.394199,-8.694588 -3.731681,-4.25015 -10.661663,-1.453813 -10.257124,4.13888 0.320105,4.425399 4.934494,6.79728 8.862925,4.555708 z m 30.59896,0.0016 c 3.83785,-2.194991 3.80084,-7.72662 -0.0665,-9.944927 -2.45132,-1.406069 -5.281238,-0.993509 -7.223686,1.053107 -4.636501,4.885142 1.407165,12.256541 7.290226,8.89182 z"
           id="path6489" />
        <path
           style="fill:#aed5b8;stroke-width:0.280724"
           d="M 82.247852,57.895531 C 66.121204,56.096401 56.087943,42.940997 61.546305,30.75209 c 0.767147,-1.713092 0.860599,-2.238328 0.961946,-5.406481 0.164769,-5.150784 1.364015,-7.75253 3.886533,-8.431774 1.624123,-0.437331 4.866015,0.469238 6.927672,1.937266 0.760697,0.541665 0.773754,0.541088 2.749246,-0.12147 5.824688,-1.953533 13.196362,-1.956813 19.005614,-0.0085 1.959704,0.657261 1.959704,0.657261 3.533588,-0.27852 6.310206,-3.751845 9.778736,-1.326784 10.073986,7.043317 0.11077,3.140517 0.2229,3.835963 0.80408,4.987168 C 116.51135,44.38302 101.009,59.98853 82.247852,57.895488 Z M 73.222778,44.055744 c 3.768494,-2.047801 3.904482,-7.532461 0.248133,-10.007678 -0.881916,-0.597025 -1.357203,-0.701811 -3.183274,-0.701811 -3.699246,0 -5.754851,2.013326 -5.754851,5.636486 0,4.672998 4.544234,7.32581 8.689992,5.073003 z m 30.598962,0 c 3.76849,-2.047801 3.90448,-7.532461 0.24813,-10.007678 -0.88191,-0.597025 -1.3572,-0.701811 -3.18327,-0.701811 -3.699247,0 -5.754852,2.013326 -5.754852,5.636486 0,4.672998 4.544236,7.32581 8.689992,5.073003 z"
           id="path6487" />
        <path
           style="fill:#9de0bc;stroke-width:0.280724"
           d="M 82.247852,57.895531 C 66.121204,56.096401 56.087943,42.940997 61.546305,30.75209 c 0.767147,-1.713092 0.860599,-2.238328 0.961946,-5.406481 0.164769,-5.150784 1.364015,-7.75253 3.886533,-8.431774 1.624123,-0.437331 4.866015,0.469238 6.927672,1.937266 0.760697,0.541665 0.773754,0.541088 2.749246,-0.12147 5.824688,-1.953533 13.196362,-1.956813 19.005614,-0.0085 1.959704,0.657261 1.959704,0.657261 3.533588,-0.27852 6.310206,-3.751845 9.778736,-1.326784 10.073986,7.043317 0.11077,3.140517 0.2229,3.835963 0.80408,4.987168 C 116.51135,44.38302 101.009,59.98853 82.247852,57.895488 Z M 73.060466,44.171703 c 4.129075,-2.106497 4.164472,-8.145954 0.06044,-10.312628 -3.717209,-1.962456 -8.329262,0.431723 -8.666545,4.49892 -0.402747,4.856601 4.280648,8.020389 8.606102,5.813708 z m 30.598964,0 c 4.12907,-2.106497 4.16447,-8.145954 0.0604,-10.312628 -3.71721,-1.962456 -8.32926,0.431723 -8.666545,4.49892 -0.402747,4.856601 4.280649,8.020389 8.606105,5.813708 z"
           id="path6485" />
        <path
           style="fill:#a1d9b7;stroke-width:0.280724"
           d="M 82.338442,57.903545 C 66.036701,56.068837 55.696537,42.335605 61.685264,30.473139 c 0.578987,-1.146856 0.695019,-1.858515 0.813131,-4.987168 0.314051,-8.318854 3.802623,-10.759621 10.064937,-7.041898 1.573885,0.934362 1.573885,0.934362 3.533587,0.277101 5.798752,-1.944835 13.181647,-1.944835 18.980397,0 1.959704,0.657261 1.959704,0.657261 3.533588,-0.277101 6.262316,-3.717723 9.750886,-1.276956 10.064936,7.041898 0.11811,3.128653 0.23414,3.840312 0.81313,4.987168 6.99669,13.859034 -8.51246,29.528061 -27.150528,27.430406 z M 73.060466,44.171703 c 4.129075,-2.106497 4.164472,-8.145954 0.06044,-10.312628 -3.717209,-1.962456 -8.329262,0.431723 -8.666545,4.49892 -0.402747,4.856601 4.280648,8.020389 8.606102,5.813708 z m 30.598964,0 c 4.12907,-2.106497 4.16447,-8.145954 0.0604,-10.312628 -3.71721,-1.962456 -8.32926,0.431723 -8.666545,4.49892 -0.402747,4.856601 4.280649,8.020389 8.606105,5.813708 z"
           id="path6483" />
        <path
           style="fill:#99deba;stroke-width:0.280724"
           d="M 82.338442,57.903545 C 66.036701,56.068837 55.696537,42.335605 61.685264,30.473139 c 0.578987,-1.146856 0.695019,-1.858515 0.813131,-4.987168 0.314051,-8.318854 3.802623,-10.759621 10.064937,-7.041898 1.573885,0.934362 1.573885,0.934362 3.533587,0.277101 5.798752,-1.944835 13.181647,-1.944835 18.980397,0 1.959704,0.657261 1.959704,0.657261 3.533588,-0.277101 6.262316,-3.717723 9.750886,-1.276956 10.064936,7.041898 0.11811,3.128653 0.23414,3.840312 0.81313,4.987168 6.99669,13.859034 -8.51246,29.528061 -27.150528,27.430406 z M 71.9938,44.675892 c 6.145551,-1.841252 5.25663,-10.952614 -1.113511,-11.413388 -3.850301,-0.278506 -6.487865,2.038046 -6.487865,5.69824 0,4.034137 3.764692,6.864647 7.601376,5.715148 z m 30.59896,0 c 2.46416,-0.738281 4.18905,-3.062461 4.18905,-5.644482 0,-7.505136 -11.260138,-7.881845 -11.737013,-0.392663 -0.266882,4.191305 3.541608,7.237477 7.547963,6.037145 z"
           id="path6481" />
        <path
           style="fill:#96deb8;stroke-width:0.280724"
           d="M 82.779874,57.890143 C 66.548305,56.575789 56.061458,43.103979 61.622628,30.710726 c 0.715198,-1.593842 0.804725,-2.110401 0.804725,-4.643154 0,-8.703876 4.050012,-11.496442 10.639901,-7.336427 1.100118,0.694474 1.100118,0.694474 2.679196,0.139473 5.906367,-2.075921 14.540812,-2.05444 19.883994,0.04947 1.340872,0.527975 1.340872,0.527975 2.458764,-0.17772 6.608652,-4.171859 10.657672,-1.388894 10.657672,7.325207 0,2.528371 0.0904,3.052069 0.80148,4.643154 4.86766,10.891769 -2.46451,22.841116 -16.160048,26.336267 -2.072574,0.528927 -3.225509,0.68876 -6.959021,0.964735 -0.617593,0.04565 -2.259831,-0.0091 -3.649417,-0.121585 z M 71.9938,44.675892 c 6.145551,-1.841252 5.25663,-10.952614 -1.113511,-11.413388 -3.850301,-0.278506 -6.487865,2.038046 -6.487865,5.69824 0,4.034137 3.764692,6.864647 7.601376,5.715148 z m 30.59896,0 c 2.46416,-0.738281 4.18905,-3.062461 4.18905,-5.644482 0,-7.505136 -11.260138,-7.881845 -11.737013,-0.392663 -0.266882,4.191305 3.541608,7.237477 7.547963,6.037145 z"
           id="path6479" />
        <path
           style="fill:#9bdab6;stroke-width:0.280724"
           d="M 82.779874,57.876613 C 66.648681,56.656783 56.090091,43.09748 61.62588,30.710726 c 0.711075,-1.591085 0.801473,-2.114783 0.801473,-4.643154 0,-8.290684 3.234721,-11.03018 9.354152,-7.922061 2.476403,1.257789 2.476403,1.257789 4.351228,0.62242 5.776811,-1.957733 13.131959,-1.957733 18.908771,0 1.874824,0.635369 1.874824,0.635369 4.351229,-0.62242 6.119427,-3.108119 9.354147,-0.368623 9.354147,7.922061 0,2.528371 0.0904,3.052069 0.80148,4.643154 6.36947,14.252181 -7.77089,28.602469 -26.768486,27.165887 z M 71.9938,44.675892 c 6.145551,-1.841252 5.25663,-10.952614 -1.113511,-11.413388 -3.801748,-0.274994 -6.531375,2.090943 -6.525645,5.65618 0.0066,4.123937 3.728465,6.928878 7.639156,5.757208 z m 31.47752,-0.360402 c 2.19051,-1.041171 3.31049,-2.844222 3.31049,-5.329547 0,-7.446799 -11.282088,-7.803004 -11.729442,-0.370329 -0.278456,4.62651 4.240466,7.685953 8.418952,5.699876 z"
           id="path6477" />
        <path
           style="fill:#94dcb6;stroke-width:0.280724"
           d="M 82.779874,57.876613 C 66.648681,56.656783 56.090091,43.09748 61.62588,30.710726 c 0.711075,-1.591085 0.801473,-2.114783 0.801473,-4.643154 0,-8.290684 3.234721,-11.03018 9.354152,-7.922061 2.476403,1.257789 2.476403,1.257789 4.351228,0.62242 5.776811,-1.957733 13.131959,-1.957733 18.908771,0 1.874824,0.635369 1.874824,0.635369 4.351229,-0.62242 6.119427,-3.108119 9.354147,-0.368623 9.354147,7.922061 0,2.528371 0.0904,3.052069 0.80148,4.643154 6.36947,14.252181 -7.77089,28.602469 -26.768486,27.165887 z M 72.062034,44.695348 c 3.212468,-0.892052 5.159984,-5.249731 3.666892,-8.204884 -2.848595,-5.637985 -11.376606,-3.794376 -11.376606,2.459427 0,4.156171 3.646617,6.873714 7.709714,5.745457 z m 31.535876,-0.351231 c 5.56386,-2.877185 3.54682,-11.194369 -2.71481,-11.194369 -6.607286,0 -8.258614,9.148522 -2.066908,11.450912 1.281918,0.476682 3.604818,0.352057 4.781718,-0.256543 z"
           id="path6475" />
        <path
           style="fill:#92dcb5;stroke-width:0.280724"
           d="m 80.113381,40.995996 c 2.14e-4,-0.192998 0.754317,-0.572453 1.675784,-0.843232 0.921468,-0.27078 2.106485,-0.870828 2.633372,-1.333441 1.161299,-1.019634 1.351024,-1.031766 2.305262,-0.147408 0.729749,0.676307 3.38223,1.832813 4.203613,1.832813 0.225806,0 0.410557,0.189489 0.410557,0.421087 0,0.764604 -2.843483,0.07267 -4.600076,-1.11939 -1.032979,-0.700998 -1.032979,-0.700998 -2.119348,0.01793 -1.744595,1.154517 -4.509942,1.873055 -4.509164,1.171644 z m 3.136112,-7.13298 c 0.118311,-0.61434 0.934003,-0.701253 0.934003,-0.09952 0,0.229484 -0.232543,0.462026 -0.516761,0.516762 -0.375159,0.07225 -0.489491,-0.04208 -0.417242,-0.417242 z m 3.72613,0.16059 c -0.103738,-0.167851 -0.05904,-0.434762 0.09933,-0.593133 0.354171,-0.354171 0.898319,-0.05506 0.898319,0.493799 0,0.472633 -0.722483,0.544569 -0.997653,0.09933 z M 67.006765,29.767019 c -2.682207,-2.964433 -0.659133,-10.455537 2.300029,-8.51662 1.678989,1.100116 2.255893,5.313942 1.045949,7.639823 -0.868874,1.670242 -2.290912,2.04288 -3.345978,0.876797 z m 34.784685,0.44321 c -1.38509,-0.556858 -2.083893,-5.208701 -1.11757,-7.439486 1.50545,-3.4754 4.70431,-1.617126 4.70431,2.73282 0,3.587221 -1.49419,5.547954 -3.58674,4.706666 z"
           id="path6473" />
        <path
           style="fill:#8ed7b0;stroke-width:0.280724"
           d="m 80.113381,40.995996 c 2.14e-4,-0.192998 0.754317,-0.572453 1.675784,-0.843232 0.921468,-0.27078 2.106485,-0.870828 2.633372,-1.333441 1.093167,-0.959814 1.369892,-1.018274 1.884566,-0.398129 0.517136,0.623111 2.764313,1.72006 3.997654,1.951436 0.976426,0.183179 1.512939,0.974271 0.660741,0.974271 -0.825153,0 -3.108165,-0.844291 -4.15338,-1.535982 -1.106668,-0.732358 -1.106668,-0.732358 -1.943737,-0.136312 -1.614873,1.149891 -4.755778,2.022732 -4.755,1.321389 z m 3.212824,-6.97239 c -0.289292,-0.468085 0.361351,-1.004856 0.748613,-0.617593 0.323935,0.323934 0.121195,0.922778 -0.312409,0.922778 -0.136174,0 -0.332466,-0.137333 -0.436204,-0.305185 z m 3.649418,0 c -0.289293,-0.468085 0.361351,-1.004856 0.748613,-0.617593 0.323934,0.323934 0.121195,0.922778 -0.312409,0.922778 -0.136174,0 -0.332466,-0.137333 -0.436204,-0.305185 z M 66.955301,29.679297 c -1.833117,-2.33043 -1.467133,-7.032682 0.655618,-8.423562 2.78787,-1.826683 4.697474,5.34758 2.210191,8.303548 -0.909449,1.080819 -2.071753,1.129494 -2.865809,0.120014 z m 34.397829,-0.120014 c -0.99776,-1.185764 -1.436049,-3.511272 -1.03022,-5.466156 1.04005,-5.009875 5.04804,-3.619792 5.05371,1.752767 0.004,3.694566 -2.27194,5.794997 -4.02349,3.713389 z"
           id="path6471" />
        <path
           style="fill:#8ad2ab;stroke-width:0.280724"
           d="m 80.112992,40.960905 c 0,-0.250897 0.18475,-0.456177 0.410556,-0.456177 0.821384,0 3.473865,-1.156506 4.203613,-1.832813 0.877236,-0.812995 1.085825,-0.846096 1.579942,-0.250721 0.517136,0.623111 2.764313,1.72006 3.997654,1.951436 0.976426,0.183179 1.512939,0.974271 0.660741,0.974271 -0.814225,0 -3.101816,-0.840089 -4.117035,-1.51193 -1.070322,-0.708306 -1.070322,-0.708306 -2.990543,0.264575 -2.374451,1.203017 -3.744928,1.518237 -3.744928,0.861359 z m 3.213213,-6.937299 c -0.289292,-0.468085 0.361351,-1.004856 0.748613,-0.617593 0.323935,0.323934 0.121195,0.922778 -0.312409,0.922778 -0.136174,0 -0.332466,-0.137333 -0.436204,-0.305185 z m 3.649418,0 c -0.289293,-0.468085 0.361351,-1.004856 0.748613,-0.617593 0.323934,0.323934 0.121195,0.922778 -0.312409,0.922778 -0.136174,0 -0.332466,-0.137333 -0.436204,-0.305185 z M 66.955301,29.679297 c -1.765321,-2.24424 -1.467007,-6.837994 0.540463,-8.322654 2.900109,-2.144827 4.871002,5.519323 2.16279,8.410376 -0.806129,0.860554 -1.987495,0.822218 -2.703253,-0.08772 z m 34.402359,-0.114626 c -2.538495,-3.016829 -0.48414,-10.28248 2.32081,-8.208028 1.02567,0.758548 1.51368,1.912129 1.64607,3.891017 0.26991,4.034457 -2.0658,6.576319 -3.96688,4.317011 z"
           id="path6469" />
        <path
           style="fill:#88cfa9;stroke-width:0.280724"
           d="m 80.112992,40.972795 c 0,-0.26624 0.389407,-0.484507 1.069351,-0.599382 1.186151,-0.200399 3.983688,-1.689276 3.983688,-2.120159 0,-0.481571 0.563928,-0.298664 1.630627,0.528885 1.120602,0.869367 3.096677,1.722589 3.989544,1.722589 0.306865,0 0.555767,0.188584 0.555767,0.421087 0,0.231597 -0.169712,0.421086 -0.377139,0.421086 -0.696318,0 -3.566749,-1.094453 -4.369391,-1.665986 -0.794675,-0.565857 -0.794675,-0.565857 -2.726207,0.396093 -2.348531,1.169626 -3.75624,1.505336 -3.75624,0.895787 z m 3.213213,-6.949189 c -0.289292,-0.468085 0.361351,-1.004856 0.748613,-0.617593 0.323935,0.323934 0.121195,0.922778 -0.312409,0.922778 -0.136174,0 -0.332466,-0.137333 -0.436204,-0.305185 z m 3.649418,0 c -0.289293,-0.468085 0.361351,-1.004856 0.748613,-0.617593 0.323934,0.323934 0.121195,0.922778 -0.312409,0.922778 -0.136174,0 -0.332466,-0.137333 -0.436204,-0.305185 z M 67.285529,29.978032 c -2.06258,-1.444687 -1.926102,-7.041424 0.210235,-8.621389 2.876187,-2.127136 4.848663,5.54317 2.16279,8.410376 -0.686462,0.732807 -1.521988,0.807103 -2.373025,0.211013 z m 34.230151,-0.211013 c -2.64692,-2.825623 -0.78021,-10.36416 2.09922,-8.477488 2.06654,1.354054 2.36873,6.564132 0.48969,8.443162 -0.83745,0.837455 -1.82431,0.85054 -2.58891,0.03433 z"
           id="path6467" />
        <path
           style="fill:#84c9a4;stroke-width:0.280724"
           d="m 80.112992,40.979362 c 0,-0.252908 0.400747,-0.48733 1.037212,-0.606732 1.336515,-0.250732 3.715691,-1.455743 3.91869,-1.984748 0.229284,-0.597507 0.564871,-0.511443 1.764348,0.452483 0.590061,0.474187 1.809042,1.089942 2.708842,1.368346 1.518764,0.469914 2.367849,1.13819 1.446138,1.13819 -0.810291,0 -3.689993,-1.142905 -4.569007,-1.813361 -0.880954,-0.671937 -0.918633,-0.676482 -1.380172,-0.166487 -0.98023,1.083141 -4.926051,2.374619 -4.926051,1.612309 z m 3.213213,-6.955756 c -0.103737,-0.167851 -0.04277,-0.451029 0.135485,-0.629283 0.352098,-0.352099 0.956781,0.273546 0.686715,0.710521 -0.196161,0.317395 -0.600523,0.277442 -0.8222,-0.08124 z m 3.699626,0.08124 c -0.270066,-0.436975 0.334617,-1.06262 0.686715,-0.710521 0.178255,0.178254 0.239222,0.461432 0.135485,0.629283 -0.221677,0.35868 -0.626039,0.398633 -0.8222,0.08124 z m -19.95619,-4.372151 c -1.887373,-1.887373 -1.57587,-7.08975 0.5062,-8.453974 1.649201,-1.080598 3.338219,1.200874 3.322537,4.487977 -0.0176,3.689107 -2.02562,5.769114 -3.828737,3.965997 z m 34.446039,0.03433 c -2.542327,-2.713971 -0.92352,-9.927698 1.91691,-8.542127 0.99931,0.487467 1.94591,2.55708 1.94403,4.250381 -0.004,3.795218 -2.12143,6.148693 -3.86094,4.291746 z"
           id="path6465" />
        <path
           style="fill:#80c5a0;stroke-width:0.280724"
           d="m 80.112992,40.94812 c 0,-0.271852 0.244366,-0.444453 0.63163,-0.446134 0.808812,-0.0035 3.537685,-1.26762 4.321401,-2.001822 0.601803,-0.563782 0.601803,-0.563782 1.853366,0.391557 0.68836,0.525437 1.870298,1.121938 2.626527,1.325559 1.441843,0.388227 2.015066,0.723459 1.727974,1.010552 -0.296964,0.296962 -3.106505,-0.666366 -4.469605,-1.532526 -1.262107,-0.801985 -1.326137,-0.813458 -1.774544,-0.317975 -1.001173,1.106284 -4.916749,2.357221 -4.916749,1.570789 z m 3.29446,-6.787137 c -0.224892,-0.224892 0.06945,-0.95509 0.384992,-0.95509 0.137879,0 0.25069,0.252652 0.25069,0.561449 0,0.547184 -0.297756,0.731567 -0.635682,0.393641 z m 3.72365,-0.393641 c 0,-0.308797 0.112811,-0.561449 0.25069,-0.561449 0.315546,0 0.609885,0.730198 0.384992,0.95509 -0.337926,0.337926 -0.635682,0.153543 -0.635682,-0.393641 z M 67.048575,29.65873 c -1.382195,-1.491412 -1.67801,-4.754667 -0.620899,-6.849384 1.689718,-3.348261 4.42141,-1.564365 4.42141,2.887344 0,3.851309 -1.985158,5.920839 -3.800511,3.96204 z m 34.467105,0.108289 c -2.499452,-2.668202 -0.87384,-9.926131 1.91214,-8.53717 2.16989,1.081808 2.60944,6.366238 0.70082,8.425665 -0.84298,0.909596 -1.82604,0.951547 -2.61296,0.111505 z"
           id="path6463" />
        <path
           style="fill:#80c49f;stroke-width:0.280724"
           d="m 80.161668,41.060511 c 0.06336,-0.190086 0.851405,-0.573397 1.751207,-0.8518 0.899803,-0.278404 2.121858,-0.896631 2.715679,-1.373839 1.079675,-0.86765 1.079675,-0.86765 2.311036,0.07227 0.677249,0.516956 1.850097,1.106518 2.606326,1.310139 1.441843,0.388227 2.015066,0.723459 1.727974,1.010552 -0.296964,0.296962 -3.106505,-0.666366 -4.469605,-1.532526 -1.262107,-0.801985 -1.326137,-0.813458 -1.774544,-0.317975 -0.880972,0.973464 -5.12007,2.43917 -4.868073,1.68318 z m 3.245784,-6.899528 c -0.224892,-0.224892 0.06945,-0.95509 0.384992,-0.95509 0.137879,0 0.25069,0.252652 0.25069,0.561449 0,0.547184 -0.297756,0.731567 -0.635682,0.393641 z m 3.72365,-0.393641 c 0,-0.308797 0.112811,-0.561449 0.25069,-0.561449 0.315546,0 0.609885,0.730198 0.384992,0.95509 -0.337926,0.337926 -0.635682,0.153543 -0.635682,-0.393641 z M 67.048575,29.65873 c -2.18912,-2.3621 -1.27209,-8.523987 1.268566,-8.523987 1.530213,0 2.531945,1.832572 2.531945,4.631953 0,3.782564 -2.001945,5.832719 -3.800511,3.892034 z m 34.467105,0.108289 c -0.87571,-0.934831 -1.19053,-1.999888 -1.19053,-4.027615 0,-4.746323 3.2213,-6.443267 4.64632,-2.44763 1.41501,3.967557 -1.20542,8.877548 -3.45579,6.475245 z"
           id="path6461" />
        <path
           style="fill:#7dc19c;stroke-width:0.280724"
           d="m 80.161668,41.060511 c 0.06336,-0.190086 0.851405,-0.573397 1.751207,-0.8518 0.899803,-0.278404 2.121858,-0.896631 2.715679,-1.373839 1.079675,-0.86765 1.079675,-0.86765 2.311036,0.07227 0.677249,0.516956 1.850097,1.106518 2.606326,1.310139 1.441843,0.388227 2.015066,0.723459 1.727974,1.010552 -0.296964,0.296962 -3.106505,-0.666366 -4.469605,-1.532526 -1.262107,-0.801985 -1.326137,-0.813458 -1.774544,-0.317975 -0.880972,0.973464 -5.12007,2.43917 -4.868073,1.68318 z m 3.245784,-6.899528 c -0.253055,-0.253054 0.09539,-0.975149 0.384373,-0.796548 0.13822,0.08543 0.251309,0.337351 0.251309,0.559837 0,0.413392 -0.334458,0.537935 -0.635682,0.236711 z m 3.72365,-0.236711 c 0,-0.222486 0.113089,-0.474412 0.251309,-0.559837 0.288982,-0.178601 0.637428,0.543494 0.384373,0.796548 -0.301224,0.301224 -0.635682,0.176681 -0.635682,-0.236711 z M 67.048575,29.65873 c -2.18912,-2.3621 -1.27209,-8.523987 1.268566,-8.523987 1.530213,0 2.531945,1.832572 2.531945,4.631953 0,3.782564 -2.001945,5.832719 -3.800511,3.892034 z m 34.467105,0.108289 c -2.241862,-2.393222 -1.27234,-8.632276 1.34142,-8.632276 2.54065,0 3.45768,6.161887 1.26856,8.523987 -0.84021,0.906602 -1.82392,0.947416 -2.60998,0.108289 z"
           id="path6459" />
        <path
           style="fill:#77b994;stroke-width:0.280724"
           d="m 80.161668,41.060511 c 0.06336,-0.190086 0.851405,-0.573397 1.751207,-0.8518 0.899803,-0.278404 2.130432,-0.903521 2.734732,-1.38915 1.098727,-0.882961 1.098727,-0.882961 2.046217,-0.05105 0.521119,0.457549 1.62223,1.045181 2.446912,1.305849 0.824681,0.260668 1.678454,0.531443 1.89727,0.601722 0.257438,0.08268 0.301602,0.224026 0.125136,0.400491 -0.394107,0.394107 -2.841633,-0.394706 -4.333466,-1.396634 -1.219199,-0.818824 -1.245171,-0.823104 -1.804725,-0.29743 -1.117947,1.050257 -5.113579,2.428892 -4.863283,1.678006 z m 3.320017,-7.152807 c 0,-0.231597 0.126326,-0.421086 0.280724,-0.421086 0.154399,0 0.280725,0.189489 0.280725,0.421086 0,0.231598 -0.126326,0.421087 -0.280725,0.421087 -0.154398,0 -0.280724,-0.189489 -0.280724,-0.421087 z m 3.649417,0 c 0,-0.231597 0.126326,-0.421086 0.280725,-0.421086 0.154398,0 0.280724,0.189489 0.280724,0.421086 0,0.231598 -0.126326,0.421087 -0.280724,0.421087 -0.154399,0 -0.280725,-0.189489 -0.280725,-0.421087 z m -20.037686,-4.20059 c -2.215419,-2.390477 -1.332941,-8.572371 1.223725,-8.572371 1.521523,0 2.535514,1.83869 2.525779,4.580047 -0.01292,3.6383 -2.058777,5.816649 -3.749504,3.992324 z m 34.843924,0.387219 c -1.36806,-0.796699 -2.122928,-4.767809 -1.31277,-6.906063 0.71769,-1.894184 2.44616,-2.645905 3.47354,-1.510661 2.62004,2.895104 0.76508,10.120607 -2.16077,8.416724 z"
           id="path6457" />
        <path
           style="fill:#72b28e;stroke-width:0.280724"
           d="m 80.161668,41.060511 c 0.06336,-0.190086 0.851405,-0.573397 1.751207,-0.8518 0.899803,-0.278404 2.136226,-0.908178 2.747609,-1.399498 1.111604,-0.89331 1.111604,-0.89331 1.861292,-0.175238 0.793567,0.7601 2.438594,1.554837 3.837657,1.854031 0.997684,0.213358 0.875841,0.758892 -0.140362,0.628441 -1.026415,-0.131761 -3.124357,-1.109484 -3.856464,-1.797263 -0.635127,-0.596671 -0.635127,-0.596671 -1.266757,-0.0052 -1.152289,1.079036 -5.187833,2.507472 -4.934182,1.746521 z m 3.320017,-7.152807 c 0,-0.231597 0.126326,-0.421086 0.280724,-0.421086 0.154399,0 0.280725,0.189489 0.280725,0.421086 0,0.231598 -0.126326,0.421087 -0.280725,0.421087 -0.154398,0 -0.280724,-0.189489 -0.280724,-0.421087 z m 3.649417,0 c 0,-0.231597 0.126326,-0.421086 0.280725,-0.421086 0.154398,0 0.280724,0.189489 0.280724,0.421086 0,0.231598 -0.126326,0.421087 -0.280724,0.421087 -0.154399,0 -0.280725,-0.189489 -0.280725,-0.421087 z M 67.077488,29.689928 c -2.186492,-2.359264 -1.288698,-8.555185 1.239653,-8.555185 1.521523,0 2.535514,1.83869 2.525779,4.580047 -0.01298,3.656365 -2.059037,5.816368 -3.765432,3.975138 z m 34.835182,0.390598 c -1.30812,-0.760376 -2.068951,-4.831355 -1.2881,-6.892256 0.71769,-1.894184 2.44616,-2.645905 3.47354,-1.510661 2.61188,2.886091 0.73547,10.100766 -2.18544,8.402917 z"
           id="path6455" />
        <path
           style="fill:#70af8b;stroke-width:0.280724"
           d="m 80.161448,41.061171 c 0.05687,-0.170621 0.956208,-0.597214 1.998521,-0.947984 1.042314,-0.35077 2.271405,-0.998272 2.731313,-1.438892 0.836198,-0.801129 0.836198,-0.801129 1.60819,-0.07885 0.957001,0.89538 2.26719,1.568865 3.584495,1.84256 1.121101,0.232931 1.238014,0.820019 0.135104,0.678437 -1.014984,-0.130294 -3.121334,-1.106644 -3.836109,-1.778141 -0.614772,-0.577548 -0.614772,-0.577548 -1.566759,0.148568 -1.349004,1.028935 -4.869906,2.219749 -4.654755,1.574297 z m 3.320237,-7.153467 c 0,-0.231597 0.126326,-0.421086 0.280724,-0.421086 0.154399,0 0.280725,0.189489 0.280725,0.421086 0,0.231598 -0.126326,0.421087 -0.280725,0.421087 -0.154398,0 -0.280724,-0.189489 -0.280724,-0.421087 z m 3.649417,0 c 0,-0.231597 0.126326,-0.421086 0.280725,-0.421086 0.154398,0 0.280724,0.189489 0.280724,0.421086 0,0.231598 -0.126326,0.421087 -0.280724,0.421087 -0.154399,0 -0.280725,-0.189489 -0.280725,-0.421087 z M 67.131045,29.626657 c -2.121509,-2.227937 -1.408178,-8.162181 1.014871,-8.442775 1.598051,-0.185058 2.706922,1.666602 2.697004,4.503616 -0.01301,3.720171 -1.956465,5.782631 -3.711875,3.939159 z m 34.781625,0.453869 c -1.36844,-0.795434 -2.08356,-4.984608 -1.20518,-7.05991 1.31951,-3.117521 4.07438,-2.123402 4.54458,1.63995 0.43803,3.505895 -1.4264,6.531934 -3.3394,5.41996 z"
           id="path6453" />
        <path
           style="fill:#6dac89;stroke-width:0.280724"
           d="m 80.161448,41.061171 c 0.05687,-0.170621 0.932261,-0.589155 1.945305,-0.930075 1.013044,-0.34092 2.259801,-0.971497 2.770571,-1.401281 0.928672,-0.781426 0.928672,-0.781426 1.661406,-0.09675 0.920868,0.860466 2.245637,1.534932 3.545237,1.804948 1.121101,0.232931 1.238014,0.820019 0.135104,0.678437 -1.014984,-0.130294 -3.121334,-1.106644 -3.836109,-1.778141 -0.614772,-0.577548 -0.614772,-0.577548 -1.566759,0.148568 -1.349004,1.028935 -4.869906,2.219749 -4.654755,1.574297 z m 3.320237,-7.153467 c 0,-0.231597 0.126326,-0.421086 0.280724,-0.421086 0.154399,0 0.280725,0.189489 0.280725,0.421086 0,0.231598 -0.126326,0.421087 -0.280725,0.421087 -0.154398,0 -0.280724,-0.189489 -0.280724,-0.421087 z m 3.649417,0 c 0,-0.231597 0.126326,-0.421086 0.280725,-0.421086 0.154398,0 0.280724,0.189489 0.280724,0.421086 0,0.231598 -0.126326,0.421087 -0.280724,0.421087 -0.154399,0 -0.280725,-0.189489 -0.280725,-0.421087 z M 67.091644,29.543711 c -2.805925,-3.334651 -0.299404,-10.830202 2.592314,-7.752109 2.19102,2.332234 1.127841,8.607047 -1.458345,8.607047 -0.228023,0 -0.738309,-0.384722 -1.133969,-0.854938 z m 34.821026,0.536815 c -1.8635,-1.083202 -2.137655,-6.463111 -0.42239,-8.288924 2.89091,-3.077239 5.39417,4.422295 2.58891,7.756156 -0.7528,0.894654 -1.30875,1.031367 -2.16652,0.532768 z"
           id="path6451" />
        <path
           style="fill:#6aa985;stroke-width:0.280724"
           d="m 80.176686,41.015456 c 0.06525,-0.195764 0.488178,-0.435048 0.93983,-0.531743 1.312436,-0.280981 2.908211,-1.036485 3.833143,-1.814764 0.856337,-0.72056 0.856337,-0.72056 1.589071,-0.03589 0.905757,0.846346 2.051275,1.433675 3.618629,1.85534 0.660854,0.177789 1.13525,0.430532 1.054213,0.56165 -0.315523,0.510529 -3.76438,-0.711953 -4.828276,-1.711432 -0.615106,-0.577862 -0.615106,-0.577862 -1.567093,0.148254 -1.414748,1.079081 -4.869046,2.217169 -4.639517,1.528582 z m 3.304999,-7.091184 c 0,-0.24071 0.126326,-0.437654 0.280724,-0.437654 0.154399,0 0.280725,0.11887 0.280725,0.264156 0,0.145287 -0.126326,0.342231 -0.280725,0.437655 -0.154398,0.09542 -0.280724,-0.02345 -0.280724,-0.264157 z m 3.813065,0.161472 c -0.120928,-0.195666 -0.144056,-0.431569 -0.0514,-0.524229 0.251237,-0.251237 0.52517,0.11827 0.389473,0.52536 -0.09509,0.285266 -0.16121,0.285044 -0.338077,-0.0011 z M 67.095049,29.547758 c -2.80526,-3.333861 -0.302007,-10.833395 2.588909,-7.756156 2.19102,2.332234 1.127841,8.607047 -1.458345,8.607047 -0.228023,0 -0.736777,-0.382901 -1.130564,-0.850891 z m 34.817621,0.532768 c -0.82157,-0.477554 -1.57454,-2.465649 -1.58135,-4.175321 -0.0204,-5.119491 3.46793,-6.669979 4.73272,-2.10358 0.99189,3.581122 -0.99207,7.534041 -3.15137,6.278901 z"
           id="path6449" />
        <path
           style="fill:#68a582;stroke-width:0.280724"
           d="m 80.241658,41.047253 c -0.09034,-0.146171 0.0017,-0.313609 0.204446,-0.372085 0.202784,-0.05848 0.874003,-0.245123 1.491596,-0.414771 1.009307,-0.277249 1.78955,-0.699584 3.298512,-1.785437 0.394951,-0.284207 0.587586,-0.284207 0.982536,0 1.560627,1.123031 2.326046,1.52455 3.653025,1.916286 0.812576,0.239879 1.413299,0.539882 1.334937,0.666674 -0.309063,0.500073 -3.767406,-0.727232 -4.810491,-1.707159 -0.602183,-0.565722 -0.602183,-0.565722 -1.82854,0.277682 -1.383909,0.951757 -4.070176,1.832775 -4.326021,1.41881 z m 3.240027,-7.279911 c 0,-0.154398 0.126326,-0.280724 0.280724,-0.280724 0.154399,0 0.280725,0.126326 0.280725,0.280724 0,0.154398 -0.126326,0.280724 -0.280725,0.280724 -0.154398,0 -0.280724,-0.126326 -0.280724,-0.280724 z m 3.649417,0 c 0,-0.154398 0.126326,-0.280724 0.280725,-0.280724 0.154398,0 0.280724,0.126326 0.280724,0.280724 0,0.154398 -0.126326,0.280724 -0.280724,0.280724 -0.154399,0 -0.280725,-0.126326 -0.280725,-0.280724 z M 67.095049,29.547758 c -1.219678,-1.449504 -1.584829,-3.579982 -0.984855,-5.746133 1.251947,-4.520032 4.752571,-2.983646 4.732726,2.077142 -0.01403,3.578619 -2.103087,5.623706 -3.747871,3.668991 z m 34.817621,0.532768 c -1.88372,-1.094953 -2.123409,-6.383765 -0.3768,-8.314153 2.05171,-2.267598 4.62744,2.004293 3.54924,5.886495 -0.57797,2.081086 -1.95537,3.135112 -3.17244,2.427658 z"
           id="path6447" />
        <path
           style="fill:#65a17e;stroke-width:0.280724"
           d="m 80.255843,41.070204 c -0.08254,-0.133548 0.514768,-0.439079 1.327344,-0.678958 1.32698,-0.391736 2.092398,-0.793255 3.653025,-1.916286 0.335025,-0.241085 0.612668,-0.264692 0.872978,-0.07423 1.496758,1.095143 2.100256,1.428052 3.364875,1.856167 0.787738,0.266676 1.476276,0.616935 1.530083,0.778352 0.167281,0.501841 -2.806169,-0.50544 -4.083589,-1.383351 -1.193079,-0.819947 -1.193079,-0.819947 -2.386158,0 -1.307236,0.898402 -4.040005,1.804292 -4.278558,1.418305 z m 3.225842,-7.302862 c 0,-0.154398 0.126326,-0.280724 0.280724,-0.280724 0.154399,0 0.280725,0.126326 0.280725,0.280724 0,0.154398 -0.126326,0.280724 -0.280725,0.280724 -0.154398,0 -0.280724,-0.126326 -0.280724,-0.280724 z m 3.649417,0 c 0,-0.154398 0.126326,-0.280724 0.280725,-0.280724 0.154398,0 0.280724,0.126326 0.280724,0.280724 0,0.154398 -0.126326,0.280724 -0.280724,0.280724 -0.154399,0 -0.280725,-0.126326 -0.280725,-0.280724 z m -19.84742,-4.000323 c -1.284432,-1.41019 -1.741539,-3.596454 -1.212785,-5.800548 1.116606,-4.654538 4.791998,-3.181696 4.772023,1.912296 -0.0132,3.365063 -2.029504,5.567759 -3.559238,3.888252 z m 34.628988,0.313507 c -0.82778,-0.481164 -1.57454,-2.465371 -1.58135,-4.201759 -0.0148,-3.766496 2.01057,-5.928827 3.7725,-4.027668 2.54784,2.749159 0.64909,9.880381 -2.19115,8.229427 z"
           id="path6445" />
        <path
           style="fill:#619c7a;stroke-width:0.280724"
           d="m 80.247089,41.056041 c -0.08307,-0.134413 0.388948,-0.38979 1.048932,-0.567505 1.482586,-0.399218 3.085533,-1.201531 3.572258,-1.787999 0.380455,-0.45842 1.42065,-0.614065 1.42065,-0.212573 0,0.327964 2.132223,1.481015 3.468072,1.875444 0.624194,0.184302 1.182165,0.476898 1.239938,0.650212 0.177114,0.531346 -2.762682,-0.458825 -4.107,-1.383304 -1.080841,-0.743288 -1.277476,-0.794345 -1.684347,-0.437354 -1.15875,1.0167 -4.666936,2.334844 -4.958503,1.863079 z m 3.234596,-7.288699 c 0,-0.154398 0.126326,-0.280724 0.280724,-0.280724 0.154399,0 0.280725,0.126326 0.280725,0.280724 0,0.154398 -0.126326,0.280724 -0.280725,0.280724 -0.154398,0 -0.280724,-0.126326 -0.280724,-0.280724 z m 3.649417,0 c 0,-0.154398 0.126326,-0.280724 0.280725,-0.280724 0.154398,0 0.280724,0.126326 0.280724,0.280724 0,0.154398 -0.126326,0.280724 -0.280724,0.280724 -0.154399,0 -0.280725,-0.126326 -0.280725,-0.280724 z m -19.84742,-4.000323 c -2.09142,-2.296189 -1.718832,-7.661763 0.588934,-8.481134 1.009411,-0.358391 1.557904,0.0019 2.34484,1.540291 1.839011,3.595093 -0.639756,9.459464 -2.933774,6.940843 z m 34.628988,0.313507 c -2.111326,-1.227254 -2.002981,-7.475354 0.15219,-8.776856 0.79106,-0.477714 1.93294,0.129691 2.58502,1.375057 1.73333,3.310389 -0.30295,8.816769 -2.73721,7.401799 z"
           id="path6443" />
        <path
           style="fill:#5c9573;stroke-width:0.280724"
           d="m 80.247089,41.056041 c -0.08307,-0.134413 0.388948,-0.38979 1.048932,-0.567505 1.482586,-0.399218 3.085533,-1.201531 3.572258,-1.787999 0.380455,-0.45842 1.42065,-0.614065 1.42065,-0.212573 0,0.327964 2.132223,1.481015 3.468072,1.875444 0.624194,0.184302 1.182165,0.476898 1.239938,0.650212 0.177114,0.531346 -2.762682,-0.458825 -4.107,-1.383304 -1.080841,-0.743288 -1.277476,-0.794345 -1.684347,-0.437354 -1.15875,1.0167 -4.666936,2.334844 -4.958503,1.863079 z m 3.234596,-7.288699 c 0,-0.154398 0.126326,-0.280724 0.280724,-0.280724 0.154399,0 0.280725,0.126326 0.280725,0.280724 0,0.154398 -0.126326,0.280724 -0.280725,0.280724 -0.154398,0 -0.280724,-0.126326 -0.280724,-0.280724 z m 3.649417,0 c 0,-0.154398 0.126326,-0.280724 0.280725,-0.280724 0.154398,0 0.280724,0.126326 0.280724,0.280724 0,0.154398 -0.126326,0.280724 -0.280724,0.280724 -0.154399,0 -0.280725,-0.126326 -0.280725,-0.280724 z m -19.58985,-3.806821 c -2.319576,-1.624694 -2.083019,-7.817411 0.331364,-8.674636 2.750869,-0.976694 4.15608,5.993603 1.702875,8.446808 -0.780175,0.780175 -1.181485,0.82512 -2.034239,0.227828 z m 34.057498,-0.227828 c -2.414422,-2.414417 -1.1178,-9.183371 1.62714,-8.494434 2.33578,0.586243 2.75126,6.863142 0.56797,8.580523 -0.95037,0.747558 -1.37825,0.730777 -2.19511,-0.08609 z"
           id="path6441" />
        <path
           style="fill:#57906e;stroke-width:0.280724"
           d="m 89.300232,40.785105 c -0.891359,-0.277396 -2.067759,-0.845382 -2.614224,-1.262191 -0.905799,-0.690887 -1.036096,-0.719351 -1.474932,-0.32221 -0.848567,0.767942 -3.660751,1.906753 -4.462968,1.807306 -0.658709,-0.08166 -0.542989,-0.168168 0.768506,-0.574521 1.379633,-0.427465 2.205862,-0.86162 3.681567,-1.934539 0.368336,-0.267801 0.683846,-0.167129 1.684346,0.537437 0.677111,0.476831 1.799578,1.02357 2.494371,1.214977 1.257814,0.346512 1.897194,0.700352 1.66563,0.921776 -0.06691,0.06398 -0.85094,-0.110639 -1.742296,-0.388035 z m -5.818547,-7.017763 c 0,-0.154398 0.126326,-0.280724 0.280724,-0.280724 0.154399,0 0.280725,0.126326 0.280725,0.280724 0,0.154398 -0.126326,0.280724 -0.280725,0.280724 -0.154398,0 -0.280724,-0.126326 -0.280724,-0.280724 z m 3.649417,0 c 0,-0.154398 0.126326,-0.280724 0.280725,-0.280724 0.154398,0 0.280724,0.126326 0.280724,0.280724 0,0.154398 -0.126326,0.280724 -0.280724,0.280724 -0.154399,0 -0.280725,-0.126326 -0.280725,-0.280724 z m -19.750726,-3.94856 c -2.183296,-1.717381 -1.767812,-7.99428 0.567967,-8.580523 2.718388,-0.682273 4.005161,5.877283 1.651194,8.417255 -0.829377,0.894913 -1.24971,0.925838 -2.219161,0.163268 z M 101.57768,29.65873 c -2.375795,-2.563523 -1.09461,-9.108877 1.64821,-8.420471 2.23947,0.56207 2.75155,6.358528 0.7395,8.370585 -0.98278,0.982778 -1.51287,0.993853 -2.38771,0.04989 z"
           id="path6439" />
        <path
           style="fill:#538a69;stroke-width:0.280724"
           d="m 80.534078,40.819127 c 0.308797,-0.142617 1.166486,-0.473542 1.905976,-0.735389 0.73949,-0.261848 1.705171,-0.779549 2.145958,-1.150446 0.992903,-0.835473 0.918265,-0.839568 2.24748,0.12331 0.605632,0.438718 1.836216,1.033074 2.734632,1.320792 0.997122,0.319328 1.430193,0.565702 1.111658,0.632421 -0.700803,0.146787 -2.909378,-0.698423 -4.05747,-1.552771 -0.830855,-0.618279 -0.980325,-0.647663 -1.403622,-0.275935 -0.854958,0.750801 -2.785638,1.586598 -4.027221,1.743395 -0.867407,0.109544 -1.056955,0.07916 -0.657391,-0.105377 z m 2.947607,-7.051785 c 0,-0.154398 0.126326,-0.280724 0.280724,-0.280724 0.154399,0 0.280725,0.126326 0.280725,0.280724 0,0.154398 -0.126326,0.280724 -0.280725,0.280724 -0.154398,0 -0.280724,-0.126326 -0.280724,-0.280724 z m 3.649417,0 c 0,-0.154398 0.126326,-0.280724 0.280725,-0.280724 0.154398,0 0.280724,0.126326 0.280724,0.280724 0,0.154398 -0.126326,0.280724 -0.280724,0.280724 -0.154399,0 -0.280725,-0.126326 -0.280725,-0.280724 z M 67.233144,29.63314 c -2.017645,-2.017645 -1.52218,-7.833335 0.715199,-8.394881 3.289475,-0.825606 4.000047,8.02804 0.723096,9.009693 -0.477426,0.143019 -0.832051,-0.0086 -1.438295,-0.614812 z m 34.998446,0.574222 c -2.276999,-0.59881 -2.428273,-7.470071 -0.19536,-8.873777 2.73645,-1.720253 4.46923,5.735184 1.92443,8.279993 -0.79422,0.794209 -0.86913,0.819935 -1.72907,0.593784 z"
           id="path6437" />
        <path
           style="fill:#4d8262;stroke-width:0.280724"
           d="m 80.112992,40.945734 c 0,-0.06624 0.726374,-0.328239 1.614165,-0.582214 0.887791,-0.253974 2.080481,-0.831405 2.650421,-1.283179 1.263224,-1.001319 1.103958,-1.003091 2.527501,0.02812 0.645006,0.467239 1.875591,1.062395 2.734633,1.322568 1.121797,0.339752 1.383416,0.501448 0.928474,0.573855 -0.673338,0.107166 -3.523558,-1.079517 -4.316596,-1.797206 -0.428036,-0.387368 -0.577472,-0.360119 -1.551599,0.28292 -1.580547,1.043348 -4.586999,1.997088 -4.586999,1.455136 z m 3.368693,-7.178392 c 0,-0.154398 0.126326,-0.280724 0.280724,-0.280724 0.154399,0 0.280725,0.126326 0.280725,0.280724 0,0.154398 -0.126326,0.280724 -0.280725,0.280724 -0.154398,0 -0.280724,-0.126326 -0.280724,-0.280724 z m 3.649417,0 c 0,-0.154398 0.126326,-0.280724 0.280725,-0.280724 0.154398,0 0.280724,0.126326 0.280724,0.280724 0,0.154398 -0.126326,0.280724 -0.280724,0.280724 -0.154399,0 -0.280725,-0.126326 -0.280725,-0.280724 z M 67.39821,29.83281 c -2.76261,-2.173069 -1.154027,-9.980377 1.737477,-8.432891 2.222221,1.189297 2.119451,7.650524 -0.138048,8.679109 -0.878931,0.400468 -0.752572,0.419919 -1.599429,-0.246218 z m 34.69622,0.229799 c -2.38122,-1.150473 -2.167928,-7.908797 0.27673,-8.768539 2.73789,-0.962863 3.96929,6.521564 1.40487,8.53874 -0.81052,0.637549 -0.83167,0.640439 -1.6816,0.229799 z"
           id="path6435" />
        <path
           style="fill:#4b805f;stroke-width:0.280724"
           d="m 81.656976,40.45084 c 0.926391,-0.314056 2.150662,-0.935713 2.720602,-1.381459 1.264312,-0.988809 1.105146,-0.99127 2.527501,0.03908 0.645006,0.467239 1.844009,1.04467 2.664452,1.283179 1.713014,0.497987 1.990423,0.830581 0.452053,0.541981 -1.128097,-0.211632 -3.03268,-1.091692 -3.777608,-1.745537 -0.412924,-0.362436 -0.588897,-0.327958 -1.543985,0.302514 -1.250462,0.825453 -3.271315,1.585368 -4.131026,1.553418 -0.327985,-0.01219 0.16162,-0.279118 1.088011,-0.593176 z m 1.824709,-6.683498 c 0,-0.154398 0.126326,-0.280724 0.280724,-0.280724 0.154399,0 0.280725,0.126326 0.280725,0.280724 0,0.154398 -0.126326,0.280724 -0.280725,0.280724 -0.154398,0 -0.280724,-0.126326 -0.280724,-0.280724 z m 3.649417,0 c 0,-0.154398 0.126326,-0.280724 0.280725,-0.280724 0.154398,0 0.280724,0.126326 0.280724,0.280724 0,0.154398 -0.126326,0.280724 -0.280724,0.280724 -0.154399,0 -0.280725,-0.126326 -0.280725,-0.280724 z M 67.39821,29.83281 c -2.515441,-1.978646 -1.37901,-9.266584 1.338608,-8.584505 2.333327,0.585628 2.830738,6.456995 0.709798,8.378352 -1.018625,0.922771 -1.123904,0.933367 -2.048406,0.206153 z m 34.32941,-0.206153 c -2.120939,-1.921357 -1.62353,-7.792724 0.7098,-8.378352 2.71762,-0.682079 3.85405,6.605859 1.33861,8.584505 -0.92451,0.727214 -1.02979,0.716618 -2.04841,-0.206153 z"
           id="path6433" />
        <path
           style="fill:#497d5c;stroke-width:0.280724"
           d="m 80.814803,40.786371 c 0.308797,-0.132993 1.141465,-0.44977 1.850373,-0.703949 0.708908,-0.254178 1.619259,-0.768445 2.023,-1.142816 0.910146,-0.843935 0.808055,-0.851711 2.216903,0.168854 0.645006,0.467239 1.844009,1.04467 2.664452,1.283179 1.713014,0.497987 1.990423,0.830581 0.452053,0.541981 -1.128097,-0.211632 -3.03268,-1.091692 -3.777608,-1.745537 -0.412924,-0.362436 -0.588897,-0.327958 -1.543985,0.302514 -1.168685,0.771471 -3.259597,1.587043 -3.990664,1.556581 -0.349483,-0.01456 -0.32485,-0.07547 0.105476,-0.260807 z m 2.666882,-7.019029 c 0,-0.154398 0.126326,-0.280724 0.280724,-0.280724 0.154399,0 0.280725,0.126326 0.280725,0.280724 0,0.154398 -0.126326,0.280724 -0.280725,0.280724 -0.154398,0 -0.280724,-0.126326 -0.280724,-0.280724 z m 3.649417,0 c 0,-0.154398 0.126326,-0.280724 0.280725,-0.280724 0.154398,0 0.280724,0.126326 0.280724,0.280724 0,0.154398 -0.126326,0.280724 -0.280724,0.280724 -0.154399,0 -0.280725,-0.126326 -0.280725,-0.280724 z M 67.39821,29.83281 c -2.50195,-1.968035 -1.360841,-9.262023 1.342838,-8.583443 2.329459,0.584657 2.824141,6.458077 0.705568,8.37729 -1.018625,0.922771 -1.123904,0.933367 -2.048406,0.206153 z m 34.32941,-0.206153 c -2.118572,-1.919213 -1.62389,-7.792633 0.70557,-8.37729 2.70368,-0.67858 3.84479,6.615408 1.34284,8.583443 -0.92451,0.727214 -1.02979,0.716618 -2.04841,-0.206153 z"
           id="path6431" />
        <path
           style="fill:#467959;stroke-width:0.280724"
           d="m 80.814803,40.786371 c 0.308797,-0.132993 1.141465,-0.44977 1.850373,-0.703949 0.708908,-0.254178 1.619259,-0.768445 2.023,-1.142816 0.910146,-0.843935 0.808055,-0.851711 2.216903,0.168854 0.645006,0.467239 1.875591,1.055288 2.734633,1.306775 0.859042,0.251487 1.404551,0.511169 1.212241,0.577072 -0.521241,0.178624 -2.994599,-0.709634 -4.139608,-1.486658 -1.003431,-0.680947 -1.003431,-0.680947 -2.046865,0.0078 -1.139295,0.752006 -3.233391,1.563856 -3.956153,1.533741 -0.349483,-0.01456 -0.32485,-0.07547 0.105476,-0.260807 z m 2.666882,-7.019029 c 0,-0.154398 0.126326,-0.280724 0.280724,-0.280724 0.154399,0 0.280725,0.126326 0.280725,0.280724 0,0.154398 -0.126326,0.280724 -0.280725,0.280724 -0.154398,0 -0.280724,-0.126326 -0.280724,-0.280724 z m 3.649417,0 c 0,-0.154398 0.126326,-0.280724 0.280725,-0.280724 0.154398,0 0.280724,0.126326 0.280724,0.280724 0,0.154398 -0.126326,0.280724 -0.280724,0.280724 -0.154399,0 -0.280725,-0.126326 -0.280725,-0.280724 z M 67.758491,30.033223 c -2.863977,-1.409884 -1.861353,-9.761115 1.04901,-8.737595 2.485584,0.874133 2.638932,7.107703 0.21425,8.709218 -0.452191,0.298674 -0.702757,0.304303 -1.26326,0.02838 z m 34.005359,-0.34995 c -2.139127,-1.799954 -1.65598,-7.850289 0.67357,-8.434968 3.03473,-0.76167 3.76867,7.787526 0.76396,8.899037 -0.46323,0.171361 -0.81877,0.05658 -1.43753,-0.464069 z"
           id="path6429" />
        <path
           style="fill:#427454;stroke-width:0.280724"
           d="m 80.393716,40.929857 c 0,-0.07498 0.580497,-0.282491 1.289993,-0.461145 0.709496,-0.178653 1.90867,-0.750399 2.664833,-1.270547 1.374839,-0.945723 1.374839,-0.945723 2.552057,-0.09295 0.64747,0.469025 1.880071,1.058534 2.739113,1.310021 0.859042,0.251487 1.404551,0.511169 1.212241,0.577072 -0.521241,0.178624 -2.994599,-0.709634 -4.139608,-1.486658 -1.003431,-0.680947 -1.003431,-0.680947 -2.046865,0.0078 -1.501545,0.991114 -4.271764,1.909657 -4.271764,1.41642 z m 3.087969,-7.162515 c 0,-0.154398 0.126326,-0.280724 0.280724,-0.280724 0.154399,0 0.280725,0.126326 0.280725,0.280724 0,0.154398 -0.126326,0.280724 -0.280725,0.280724 -0.154398,0 -0.280724,-0.126326 -0.280724,-0.280724 z m 3.649417,0 c 0,-0.154398 0.126326,-0.280724 0.280725,-0.280724 0.154398,0 0.280724,0.126326 0.280724,0.280724 0,0.154398 -0.126326,0.280724 -0.280724,0.280724 -0.154399,0 -0.280725,-0.126326 -0.280725,-0.280724 z M 66.888537,29.233048 c -1.678097,-2.356669 -0.634642,-8.098305 1.471744,-8.098305 1.476804,0 2.762622,3.090756 2.371335,5.700044 -0.440911,2.940205 -2.52922,4.243407 -3.843079,2.398261 z m 34.580833,0.146418 c -2.418369,-3.074465 -0.25637,-10.145771 2.35262,-7.694753 2.20427,2.070812 1.47317,8.433211 -0.96906,8.433211 -0.53245,0 -0.99824,-0.248605 -1.38356,-0.738458 z"
           id="path6427" />
        <path
           style="fill:#3f7050;stroke-width:0.280724"
           d="m 80.393716,40.945734 c 0,-0.06624 0.671271,-0.315586 1.491714,-0.554095 0.820442,-0.238509 2.033298,-0.825974 2.695234,-1.305478 1.201625,-0.870453 1.20447,-0.870958 1.806798,-0.320916 0.796659,0.727505 2.010148,1.325255 3.50904,1.728507 0.671779,0.180731 1.149123,0.400894 1.060768,0.489251 -0.287257,0.287257 -2.680105,-0.533293 -4.004553,-1.373234 -1.292087,-0.819417 -1.292087,-0.819417 -2.311379,-0.114101 -1.40233,0.970368 -4.247622,1.941703 -4.247622,1.450066 z m 3.087969,-7.178392 c 0,-0.154398 0.126326,-0.280724 0.280724,-0.280724 0.154399,0 0.280725,0.126326 0.280725,0.280724 0,0.154398 -0.126326,0.280724 -0.280725,0.280724 -0.154398,0 -0.280724,-0.126326 -0.280724,-0.280724 z m 3.649417,0 c 0,-0.154398 0.126326,-0.280724 0.280725,-0.280724 0.154398,0 0.280724,0.126326 0.280724,0.280724 0,0.154398 -0.126326,0.280724 -0.280724,0.280724 -0.154399,0 -0.280725,-0.126326 -0.280725,-0.280724 z M 67.269127,29.767019 c -2.270258,-2.84504 -1.088813,-9.401851 1.526703,-8.472935 2.109545,0.749218 2.681065,5.832605 0.909031,8.085382 -0.6287,0.799262 -1.940632,1.008005 -2.435734,0.387553 z m 34.212333,-0.372188 c -1.29062,-1.640759 -1.45613,-4.718863 -0.36681,-6.821977 1.50285,-2.901509 3.98282,-0.95546 3.98282,3.125343 0,3.54657 -2.06971,5.66243 -3.61601,3.696634 z"
           id="path6425" />
        <path
           style="fill:#3a6a4b;stroke-width:0.280724"
           d="m 80.393716,40.96804 c 0,-0.07851 0.671271,-0.337892 1.491714,-0.576401 0.820442,-0.238509 2.027205,-0.821561 2.681694,-1.29567 1.189981,-0.862018 1.189981,-0.862018 2.012963,-0.169524 0.45264,0.380872 1.488163,0.93759 2.301164,1.237152 0.813,0.299561 1.667671,0.615217 1.899269,0.701456 0.335617,0.124974 0.321985,0.161297 -0.06717,0.178962 -0.772248,0.03505 -3.24509,-0.991054 -4.267256,-1.770697 -0.932559,-0.711298 -0.932559,-0.711298 -1.457217,-0.120275 -0.763224,0.859767 -4.595162,2.373305 -4.595162,1.814997 z m 3.087969,-7.200698 c 0,-0.154398 0.126326,-0.280724 0.280724,-0.280724 0.154399,0 0.280725,0.126326 0.280725,0.280724 0,0.154398 -0.126326,0.280724 -0.280725,0.280724 -0.154398,0 -0.280724,-0.126326 -0.280724,-0.280724 z m 3.649417,0 c 0,-0.154398 0.126326,-0.280724 0.280725,-0.280724 0.154398,0 0.280724,0.126326 0.280724,0.280724 0,0.154398 -0.126326,0.280724 -0.280724,0.280724 -0.154399,0 -0.280725,-0.126326 -0.280725,-0.280724 z M 67.251941,29.759823 c -1.594324,-1.921043 -1.58594,-6.28404 0.01536,-7.99345 2.434852,-2.599237 4.828258,4.028775 2.634544,7.295788 -0.680121,1.012878 -2.081989,1.381959 -2.649904,0.697662 z m 34.428379,-0.119544 c -1.947338,-2.230213 -1.50112,-7.565135 0.69809,-8.346195 2.22083,-0.788744 3.65602,4.320294 2.08743,7.430917 -0.72623,1.440146 -1.97029,1.848927 -2.78552,0.915278 z"
           id="path6423" />
        <path
           style="fill:#356344;stroke-width:0.280724"
           d="m 80.674441,40.865053 c 0.231597,-0.08624 1.086268,-0.401895 1.899268,-0.701456 0.813,-0.299562 1.85519,-0.861889 2.315977,-1.249616 0.837794,-0.704957 0.837794,-0.704957 1.675589,0 0.779656,0.656038 3.554487,1.871472 4.272563,1.871472 0.174338,0 0.242131,0.07485 0.150648,0.166333 -0.314459,0.314458 -3.167627,-0.706687 -4.268944,-1.527849 -1.102462,-0.822017 -1.102462,-0.822017 -2.099978,-0.03562 -0.941969,0.742609 -3.27952,1.704139 -4.025115,1.655695 -0.191635,-0.01245 -0.156584,-0.09087 0.07999,-0.178962 z m 2.807244,-7.097711 c 0,-0.154398 0.126326,-0.280724 0.280724,-0.280724 0.154399,0 0.280725,0.126326 0.280725,0.280724 0,0.154398 -0.126326,0.280724 -0.280725,0.280724 -0.154398,0 -0.280724,-0.126326 -0.280724,-0.280724 z m 3.649417,0 c 0,-0.154398 0.126326,-0.280724 0.280725,-0.280724 0.154398,0 0.280724,0.126326 0.280724,0.280724 0,0.154398 -0.126326,0.280724 -0.280724,0.280724 -0.154399,0 -0.280725,-0.126326 -0.280725,-0.280724 z M 67.251941,29.759823 c -1.743776,-2.101122 -1.521812,-6.991022 0.373717,-8.233021 2.427136,-1.590321 4.27141,4.563665 2.263775,7.55378 -0.668079,0.995017 -2.074765,1.357285 -2.637492,0.679241 z m 34.428379,-0.119544 c -2.475061,-2.834596 -0.83588,-9.885295 1.88388,-8.10324 2.3676,1.551313 1.9046,8.280592 -0.58651,8.524326 -0.55517,0.05432 -1.01162,-0.09383 -1.29737,-0.421086 z"
           id="path6421" />
        <path
           style="fill:#315e40;stroke-width:0.280724"
           d="m 80.674441,40.865053 c 0.231597,-0.08624 1.086268,-0.401895 1.899268,-0.701456 0.813,-0.299562 1.851982,-0.85919 2.308849,-1.243618 0.830666,-0.69896 0.830666,-0.69896 1.924805,0.180314 0.601776,0.4836 1.836662,1.1206 2.74419,1.415554 0.987954,0.321093 1.255801,0.472948 0.667518,0.378444 -1.238458,-0.198948 -3.071187,-1.053198 -3.883813,-1.810274 -0.623591,-0.580963 -0.623591,-0.580963 -1.453479,0.117341 -0.811664,0.682971 -3.612702,1.88663 -4.28805,1.842657 -0.190026,-0.01237 -0.154374,-0.09142 0.08071,-0.178962 z m 2.807244,-7.097711 c 0,-0.154398 0.126326,-0.280724 0.280724,-0.280724 0.154399,0 0.280725,0.126326 0.280725,0.280724 0,0.154398 -0.126326,0.280724 -0.280725,0.280724 -0.154398,0 -0.280724,-0.126326 -0.280724,-0.280724 z m 3.649417,0 c 0,-0.154398 0.126326,-0.280724 0.280725,-0.280724 0.154398,0 0.280724,0.126326 0.280724,0.280724 0,0.154398 -0.126326,0.280724 -0.280724,0.280724 -0.154399,0 -0.280725,-0.126326 -0.280725,-0.280724 z M 67.321086,29.63779 c -1.884737,-1.884737 -1.513019,-7.319579 0.565395,-8.266568 1.777355,-0.809817 3.424692,2.843069 2.68071,5.944335 -0.594142,2.476663 -2.050098,3.51824 -3.246105,2.322233 z m 34.174554,-0.224932 c -1.615901,-2.054287 -1.36098,-6.160328 0.48626,-7.832051 1.99717,-1.807417 4.03059,3.431636 2.66072,6.85528 -0.71683,1.791524 -2.15497,2.237902 -3.14698,0.976771 z"
           id="path6419" />
        <path
           style="fill:#305c3e;stroke-width:0.280724"
           d="m 80.814803,40.785453 c 0.308797,-0.132695 0.750938,-0.241263 0.982535,-0.241263 0.265419,0 0.21353,0.08919 -0.140362,0.241263 -0.308797,0.132694 -0.750938,0.241262 -0.982535,0.241262 -0.26542,0 -0.21353,-0.08919 0.140362,-0.241262 z m 9.632357,0.08896 c 0.202646,-0.08109 0.444771,-0.07112 0.538056,0.02216 0.09328,0.09328 -0.07252,0.159632 -0.368451,0.147443 -0.32703,-0.01347 -0.393548,-0.07999 -0.169605,-0.169605 z m -0.976688,-0.276107 c 0.102933,-0.102932 0.271368,-0.102932 0.374301,0 0.10293,0.102932 0.01871,0.18715 -0.187151,0.18715 -0.205863,0 -0.290081,-0.08422 -0.18715,-0.18715 z m -6.83096,-0.374299 c 0.231597,-0.14967 0.547412,-0.272127 0.701811,-0.272127 0.154398,0 0.09123,0.122457 -0.140363,0.272127 -0.231597,0.14967 -0.547412,0.272127 -0.701811,0.272127 -0.154398,0 -0.09123,-0.122457 0.140363,-0.272127 z m 5.988786,0.09357 c 0.102934,-0.102932 0.271368,-0.102932 0.374301,0 0.102931,0.102933 0.01871,0.18715 -0.18715,0.18715 -0.205864,0 -0.290081,-0.08422 -0.187151,-0.18715 z m -4.023715,-1.168053 c 1.205421,-1.064627 1.154984,-1.061616 1.986317,-0.1186 0.680565,0.771992 0.680565,0.771992 -0.09143,0.09143 -0.771992,-0.680564 -0.771992,-0.680564 -1.403622,-0.111943 -0.347396,0.312741 -0.821119,0.667231 -1.052716,0.787755 -0.231598,0.120525 0.02105,-0.171363 0.561449,-0.64864 z M 83.57526,33.860917 c 0.102932,-0.102932 0.271367,-0.102932 0.374299,0 0.102932,0.102932 0.01872,0.187149 -0.18715,0.187149 -0.205864,0 -0.290082,-0.08422 -0.187149,-0.187149 z m 3.649417,0 c 0.102932,-0.102932 0.271367,-0.102932 0.374299,0 0.102933,0.102932 0.01872,0.187149 -0.187149,0.187149 -0.205865,0 -0.290082,-0.08422 -0.18715,-0.187149 z M 67.267302,29.486294 c -2.452529,-2.618108 -0.753803,-9.793123 1.862312,-7.865965 1.17904,0.868538 1.845711,3.206177 1.483852,5.203035 -0.52815,2.91451 -2.007592,4.091874 -3.346164,2.66293 z m 34.183558,-0.206591 c -1.514151,-2.12643 -1.18692,-6.347638 0.59376,-7.659374 2.61612,-1.927158 4.31484,5.247857 1.86231,7.865965 -0.8248,0.880492 -1.73661,0.803795 -2.45607,-0.206591 z"
           id="path6417" />
      </g>
    </g>
  </g>
</svg>
